ISO-10303-21;
HEADER;
FILE_DESCRIPTION (( 'STEP AP214' ),
    '1' );
FILE_NAME ('W1-LC-03_Baseplate_RevA.STEP',
    '2026-09-30T13:57:39',
    ( '' ),
    ( '' ),
    'SwSTEP 2.0',
    'SolidWorks 2023',
    '' );
FILE_SCHEMA (( 'AUTOMOTIVE_DESIGN' ));
ENDSEC;

DATA;
#1 = CARTESIAN_POINT ( 'NONE',  ( -23.50000000000000000, 8.000000000000001776, 16.97500000000001918 ) ) ;
#2 = LINE ( 'NONE', #412, #1039 ) ;
#3 = ORIENTED_EDGE ( 'NONE', *, *, #1314, .F. ) ;
#4 = CIRCLE ( 'NONE', #1155, 3.249999999999999556 ) ;
#5 = CARTESIAN_POINT ( 'NONE',  ( -23.50000000000000000, 1.650000000000001243, -4.974999999999993427 ) ) ;
#6 = EDGE_CURVE ( 'NONE', #303, #56, #1067, .T. ) ;
#7 = EDGE_LOOP ( 'NONE', ( #586, #132 ) ) ;
#8 = UNCERTAINTY_MEASURE_WITH_UNIT (LENGTH_MEASURE( 1.000000000000000082E-05 ), #548, 'distance_accuracy_value', 'NONE');
#9 = LINE ( 'NONE', #300, #1167 ) ;
#10 = CARTESIAN_POINT ( 'NONE',  ( -11.50000000000000000, 0.000000000000000000, 22.75000000000000711 ) ) ;
#11 = DIRECTION ( 'NONE',  ( 0.000000000000000000, -0.000000000000000000, -1.000000000000000000 ) ) ;
#12 = ORIENTED_EDGE ( 'NONE', *, *, #940, .F. ) ;
#13 = DIRECTION ( 'NONE',  ( 0.000000000000000000, 0.000000000000000000, 1.000000000000000000 ) ) ;
#14 = CARTESIAN_POINT ( 'NONE',  ( -16.00000000000000000, 5.000000000000000000, -19.99999999999998934 ) ) ;
#15 = DIRECTION ( 'NONE',  ( -0.000000000000000000, 1.000000000000000000, -0.000000000000000000 ) ) ;
#16 = AXIS2_PLACEMENT_3D ( 'NONE', #821, #1226, #830 ) ;
#17 = EDGE_LOOP ( 'NONE', ( #794, #950 ) ) ;
#18 = DIRECTION ( 'NONE',  ( 0.000000000000000000, 0.000000000000000000, 1.000000000000000000 ) ) ;
#19 = LINE ( 'NONE', #404, #180 ) ;
#20 = ORIENTED_EDGE ( 'NONE', *, *, #670, .T. ) ;
#21 = CARTESIAN_POINT ( 'NONE',  ( 16.00000000000000000, 0.000000000000000000, -19.99999999999998934 ) ) ;
#22 = ORIENTED_EDGE ( 'NONE', *, *, #1276, .T. ) ;
#23 = ORIENTED_EDGE ( 'NONE', *, *, #1319, .F. ) ;
#24 = CARTESIAN_POINT ( 'NONE',  ( 16.00000000000000000, 5.000000000000000000, -19.99999999999998934 ) ) ;
#25 = CARTESIAN_POINT ( 'NONE',  ( 17.69999999999999929, 2.000000000000000000, -19.99999999999998934 ) ) ;
#26 = AXIS2_PLACEMENT_3D ( 'NONE', #1230, #203, #441 ) ;
#27 = FACE_BOUND ( 'NONE', #983, .T. ) ;
#28 = ORIENTED_EDGE ( 'NONE', *, *, #324, .T. ) ;
#29 = CARTESIAN_POINT ( 'NONE',  ( 16.00000000000000000, 2.000000000000000000, 23.25000000000000711 ) ) ;
#30 = VERTEX_POINT ( 'NONE', #523 ) ;
#31 = DIRECTION ( 'NONE',  ( 0.000000000000000000, 0.000000000000000000, 1.000000000000000000 ) ) ;
#32 = PLANE ( 'NONE',  #390 ) ;
#33 = DIRECTION ( 'NONE',  ( -0.000000000000000000, 1.000000000000000000, -0.000000000000000000 ) ) ;
#34 = ORIENTED_EDGE ( 'NONE', *, *, #1237, .T. ) ;
#35 = AXIS2_PLACEMENT_3D ( 'NONE', #978, #65, #1294 ) ;
#36 = CARTESIAN_POINT ( 'NONE',  ( -16.00000000000000000, 5.000000000000000000, -19.99999999999998934 ) ) ;
#37 = DIRECTION ( 'NONE',  ( 0.000000000000000000, 1.000000000000000000, 0.000000000000000000 ) ) ;
#38 = CARTESIAN_POINT ( 'NONE',  ( -23.50000000000000000, 8.000000000000001776, -17.99999999999999645 ) ) ;
#39 = VERTEX_POINT ( 'NONE', #1023 ) ;
#40 = CIRCLE ( 'NONE', #1190, 1.700000000000000178 ) ;
#41 = EDGE_CURVE ( 'NONE', #720, #678, #384, .T. ) ;
#42 = CARTESIAN_POINT ( 'NONE',  ( -21.00000000000000000, 8.000000000000000000, -23.99999999999999289 ) ) ;
#43 = CLOSED_SHELL ( 'NONE', ( #99, #1183, #657, #139, #953, #241, #576, #46, #934, #438, #332, #58, #714, #79, #362, #1307, #186, #1228, #707, #344, #84, #196, #614, #177, #1052, #806, #674, #1133, #1029, #190, #1236, #558, #150, #1079, #271, #1285, #1105, #365, #1286, #1271, #1229, #1036, #1134, #240 ) ) ;
#44 = DIRECTION ( 'NONE',  ( 0.000000000000000000, -0.000000000000000000, 1.000000000000000000 ) ) ;
#45 = EDGE_LOOP ( 'NONE', ( #221, #947 ) ) ;
#46 = ADVANCED_FACE ( 'NONE', ( #749 ), #442, .F. ) ;
#47 = VECTOR ( 'NONE', #385, 1000.000000000000000 ) ;
#48 = CIRCLE ( 'NONE', #864, 1.700000000000000178 ) ;
#49 = DIRECTION ( 'NONE',  ( 0.000000000000000000, -0.000000000000000000, -1.000000000000000000 ) ) ;
#50 = DIRECTION ( 'NONE',  ( -1.000000000000000000, 0.000000000000000000, -0.000000000000000000 ) ) ;
#51 = DIRECTION ( 'NONE',  ( -1.000000000000000000, 0.000000000000000000, -0.000000000000000000 ) ) ;
#52 = ORIENTED_EDGE ( 'NONE', *, *, #857, .F. ) ;
#53 = CARTESIAN_POINT ( 'NONE',  ( -11.50000000000000000, 5.000000000000000000, 24.00000000000000711 ) ) ;
#54 = CARTESIAN_POINT ( 'NONE',  ( -11.50000000000000000, 0.000000000000000000, 22.75000000000000711 ) ) ;
#55 = DIRECTION ( 'NONE',  ( -0.000000000000000000, 1.000000000000000000, -0.000000000000000000 ) ) ;
#56 = VERTEX_POINT ( 'NONE', #629 ) ;
#57 = ORIENTED_EDGE ( 'NONE', *, *, #371, .T. ) ;
#58 = ADVANCED_FACE ( 'NONE', ( #435 ), #1149, .F. ) ;
#59 = DIRECTION ( 'NONE',  ( 0.000000000000000000, -1.000000000000000000, 0.000000000000000000 ) ) ;
#60 = CARTESIAN_POINT ( 'NONE',  ( -16.00000000000000000, 5.000000000000000000, -23.24999999999998934 ) ) ;
#61 = CYLINDRICAL_SURFACE ( 'NONE', #145, 1.700000000000000178 ) ;
#62 = VERTEX_POINT ( 'NONE', #1057 ) ;
#63 = VECTOR ( 'NONE', #1241, 1000.000000000000000 ) ;
#64 = AXIS2_PLACEMENT_3D ( 'NONE', #505, #1213, #310 ) ;
#65 = DIRECTION ( 'NONE',  ( 1.000000000000000000, 0.000000000000000000, -1.445602896647339163E-16 ) ) ;
#66 = AXIS2_PLACEMENT_3D ( 'NONE', #154, #1176, #873 ) ;
#67 = DIRECTION ( 'NONE',  ( -0.000000000000000000, 1.000000000000000000, -0.000000000000000000 ) ) ;
#68 = VERTEX_POINT ( 'NONE', #849 ) ;
#69 = ORIENTED_EDGE ( 'NONE', *, *, #900, .F. ) ;
#70 = LINE ( 'NONE', #491, #742 ) ;
#71 = AXIS2_PLACEMENT_3D ( 'NONE', #331, #430, #1123 ) ;
#72 = FACE_OUTER_BOUND ( 'NONE', #557, .T. ) ;
#73 = VERTEX_POINT ( 'NONE', #1249 ) ;
#74 = AXIS2_PLACEMENT_3D ( 'NONE', #1062, #868, #567 ) ;
#75 = EDGE_LOOP ( 'NONE', ( #449, #297, #831, #729 ) ) ;
#76 = ORIENTED_EDGE ( 'NONE', *, *, #564, .F. ) ;
#77 = LINE ( 'NONE', #589, #930 ) ;
#78 = CARTESIAN_POINT ( 'NONE',  ( 0.000000000000000000, 0.000000000000000000, 22.75000000000000711 ) ) ;
#79 = ADVANCED_FACE ( 'NONE', ( #116 ), #130, .F. ) ;
#80 = AXIS2_PLACEMENT_3D ( 'NONE', #923, #411, #420 ) ;
#81 = CARTESIAN_POINT ( 'NONE',  ( 32.49999999999999289, 5.000000000000000000, -23.99999999999999289 ) ) ;
#82 = ORIENTED_EDGE ( 'NONE', *, *, #662, .F. ) ;
#83 = AXIS2_PLACEMENT_3D ( 'NONE', #616, #402, #1320 ) ;
#84 = ADVANCED_FACE ( 'NONE', ( #1034, #834, #1045, #123, #649 ), #537, .T. ) ;
#85 = CARTESIAN_POINT ( 'NONE',  ( 32.50000000000000711, 0.000000000000000000, 24.00000000000000711 ) ) ;
#86 = DIRECTION ( 'NONE',  ( 0.000000000000000000, 0.000000000000000000, 1.000000000000000000 ) ) ;
#87 = CYLINDRICAL_SURFACE ( 'NONE', #236, 1.024999999999994582 ) ;
#88 = CARTESIAN_POINT ( 'NONE',  ( 16.00000000000000000, 2.000000000000000000, 18.30000000000000782 ) ) ;
#89 = VERTEX_POINT ( 'NONE', #1153 ) ;
#90 = ORIENTED_EDGE ( 'NONE', *, *, #337, .F. ) ;
#91 = PRODUCT ( 'W1-LC-03_Baseplate_RevA', 'W1-LC-03_Baseplate_RevA', '', ( #395 ) ) ;
#92 = EDGE_CURVE ( 'NONE', #386, #39, #788, .T. ) ;
#93 = CARTESIAN_POINT ( 'NONE',  ( 16.00000000000000000, 5.000000000000000000, 16.75000000000000711 ) ) ;
#94 = CARTESIAN_POINT ( 'NONE',  ( -16.00000000000000000, 0.000000000000000000, 18.30000000000000426 ) ) ;
#95 = CARTESIAN_POINT ( 'NONE',  ( 11.49999999999999645, 0.000000000000000000, 24.00000000000000711 ) ) ;
#96 = EDGE_LOOP ( 'NONE', ( #1223, #739, #1008, #1078 ) ) ;
#97 = CIRCLE ( 'NONE', #763, 3.249999999999999556 ) ;
#98 = EDGE_CURVE ( 'NONE', #495, #808, #731, .T. ) ;
#99 = ADVANCED_FACE ( 'NONE', ( #212 ), #927, .F. ) ;
#100 = ORIENTED_EDGE ( 'NONE', *, *, #888, .T. ) ;
#101 = DIRECTION ( 'NONE',  ( -0.000000000000000000, 1.000000000000000000, -0.000000000000000000 ) ) ;
#102 = DIRECTION ( 'NONE',  ( 0.000000000000000000, -1.000000000000000000, 0.000000000000000000 ) ) ;
#103 = DIRECTION ( 'NONE',  ( 0.000000000000000000, 0.000000000000000000, 1.000000000000000000 ) ) ;
#104 = EDGE_LOOP ( 'NONE', ( #984, #291, #598, #389 ) ) ;
#105 = EDGE_CURVE ( 'NONE', #316, #1090, #765, .T. ) ;
#106 = DIRECTION ( 'NONE',  ( 0.000000000000000000, 0.000000000000000000, 1.000000000000000000 ) ) ;
#107 = AXIS2_PLACEMENT_3D ( 'NONE', #957, #226, #636 ) ;
#108 = ORIENTED_EDGE ( 'NONE', *, *, #375, .F. ) ;
#109 = CARTESIAN_POINT ( 'NONE',  ( -23.50000000000000000, 8.000000000000001776, 7.025000000000000355 ) ) ;
#110 = CARTESIAN_POINT ( 'NONE',  ( -23.50000000000000000, 1.650000000000001243, 18.00000000000001066 ) ) ;
#111 = CARTESIAN_POINT ( 'NONE',  ( 16.00000000000000000, 5.000000000000000000, -19.99999999999998934 ) ) ;
#112 = VERTEX_POINT ( 'NONE', #463 ) ;
#113 = VECTOR ( 'NONE', #239, 1000.000000000000000 ) ;
#114 = CIRCLE ( 'NONE', #735, 1.024999999999998135 ) ;
#115 = DIRECTION ( 'NONE',  ( 0.000000000000000000, 0.000000000000000000, 1.000000000000000000 ) ) ;
#116 = FACE_OUTER_BOUND ( 'NONE', #209, .T. ) ;
#117 = AXIS2_PLACEMENT_3D ( 'NONE', #969, #963, #51 ) ;
#118 = ORIENTED_EDGE ( 'NONE', *, *, #1303, .T. ) ;
#119 = DIRECTION ( 'NONE',  ( 1.000000000000000000, 0.000000000000000000, -0.000000000000000000 ) ) ;
#120 = DIRECTION ( 'NONE',  ( -0.000000000000000000, 1.000000000000000000, -0.000000000000000000 ) ) ;
#121 = EDGE_LOOP ( 'NONE', ( #251, #1207, #259, #885 ) ) ;
#122 = CARTESIAN_POINT ( 'NONE',  ( -23.50000000000000000, 8.000000000000000000, 6.000000000000008882 ) ) ;
#123 = FACE_BOUND ( 'NONE', #1293, .T. ) ;
#124 = VECTOR ( 'NONE', #1247, 1000.000000000000000 ) ;
#125 = EDGE_LOOP ( 'NONE', ( #563, #1047 ) ) ;
#126 = AXIS2_PLACEMENT_3D ( 'NONE', #1064, #1070, #852 ) ;
#127 = CARTESIAN_POINT ( 'NONE',  ( -23.50000000000000000, 8.000000000000001776, -19.02499999999998792 ) ) ;
#128 = DIRECTION ( 'NONE',  ( -0.000000000000000000, 1.000000000000000000, -0.000000000000000000 ) ) ;
#129 = DIRECTION ( 'NONE',  ( -0.000000000000000000, 1.000000000000000000, -0.000000000000000000 ) ) ;
#130 = PLANE ( 'NONE',  #1194 ) ;
#131 = CARTESIAN_POINT ( 'NONE',  ( 11.49999999999999645, 0.000000000000000000, 22.75000000000000711 ) ) ;
#132 = ORIENTED_EDGE ( 'NONE', *, *, #637, .T. ) ;
#133 = DIRECTION ( 'NONE',  ( -0.000000000000000000, 1.000000000000000000, -0.000000000000000000 ) ) ;
#134 = CIRCLE ( 'NONE', #1053, 3.249999999999999556 ) ;
#135 = DIRECTION ( 'NONE',  ( 1.445602896647339163E-16, 0.000000000000000000, 1.000000000000000000 ) ) ;
#136 = DIRECTION ( 'NONE',  ( -0.000000000000000000, 1.000000000000000000, -0.000000000000000000 ) ) ;
#137 = CARTESIAN_POINT ( 'NONE',  ( 16.00000000000000000, 5.000000000000000000, 23.25000000000000711 ) ) ;
#138 = ORIENTED_EDGE ( 'NONE', *, *, #1165, .F. ) ;
#139 = ADVANCED_FACE ( 'NONE', ( #1185 ), #1270, .F. ) ;
#140 = CARTESIAN_POINT ( 'NONE',  ( -32.50000000000000000, 8.000000000000000000, -23.99999999999999289 ) ) ;
#141 = DIRECTION ( 'NONE',  ( -0.000000000000000000, 1.000000000000000000, -0.000000000000000000 ) ) ;
#142 = ORIENTED_EDGE ( 'NONE', *, *, #478, .T. ) ;
#143 = EDGE_CURVE ( 'NONE', #89, #30, #769, .T. ) ;
#144 = EDGE_CURVE ( 'NONE', #459, #367, #1162, .T. ) ;
#145 = AXIS2_PLACEMENT_3D ( 'NONE', #775, #1177, #258 ) ;
#146 = CARTESIAN_POINT ( 'NONE',  ( -16.00000000000000000, 2.000000000000000000, -19.99999999999998934 ) ) ;
#147 = CARTESIAN_POINT ( 'NONE',  ( 16.00000000000000000, 5.000000000000000000, -19.99999999999998934 ) ) ;
#148 = DIRECTION ( 'NONE',  ( 1.000000000000000000, 0.000000000000000000, 0.000000000000000000 ) ) ;
#149 = PRODUCT_DEFINITION ( 'UNKNOWN', '', #1101, #826 ) ;
#150 = ADVANCED_FACE ( 'NONE', ( #874 ), #61, .F. ) ;
#151 = ORIENTED_EDGE ( 'NONE', *, *, #1178, .T. ) ;
#152 = CIRCLE ( 'NONE', #1244, 1.024999999999991251 ) ;
#153 = LINE ( 'NONE', #140, #1208 ) ;
#154 = CARTESIAN_POINT ( 'NONE',  ( -16.00000000000000000, 2.000000000000000000, 20.00000000000000355 ) ) ;
#155 = ORIENTED_EDGE ( 'NONE', *, *, #1051, .T. ) ;
#156 = VECTOR ( 'NONE', #996, 1000.000000000000000 ) ;
#157 = DIRECTION ( 'NONE',  ( 0.000000000000000000, -0.000000000000000000, -1.000000000000000000 ) ) ;
#158 = CARTESIAN_POINT ( 'NONE',  ( 16.00000000000000000, 5.000000000000000000, 20.00000000000000711 ) ) ;
#159 = DIRECTION ( 'NONE',  ( -0.000000000000000000, 1.000000000000000000, -0.000000000000000000 ) ) ;
#160 = VERTEX_POINT ( 'NONE', #555 ) ;
#161 = ORIENTED_EDGE ( 'NONE', *, *, #279, .F. ) ;
#162 = DIRECTION ( 'NONE',  ( -0.000000000000000000, 1.000000000000000000, -0.000000000000000000 ) ) ;
#163 = AXIS2_PLACEMENT_3D ( 'NONE', #146, #234, #345 ) ;
#164 = DIRECTION ( 'NONE',  ( 0.000000000000000000, 0.000000000000000000, 1.000000000000000000 ) ) ;
#165 = CARTESIAN_POINT ( 'NONE',  ( -23.50000000000000000, 1.650000000000000799, 18.00000000000001066 ) ) ;
#166 = ORIENTED_EDGE ( 'NONE', *, *, #446, .F. ) ;
#167 = ORIENTED_EDGE ( 'NONE', *, *, #1319, .T. ) ;
#168 = CARTESIAN_POINT ( 'NONE',  ( -32.50000000000000000, 8.000000000000000000, -23.99999999999999289 ) ) ;
#169 = ORIENTED_EDGE ( 'NONE', *, *, #244, .F. ) ;
#170 = EDGE_LOOP ( 'NONE', ( #992, #1312, #651, #100 ) ) ;
#171 = VECTOR ( 'NONE', #443, 1000.000000000000000 ) ;
#172 = AXIS2_PLACEMENT_3D ( 'NONE', #21, #628, #106 ) ;
#173 = CARTESIAN_POINT ( 'NONE',  ( 11.49999999999999645, 5.000000000000000000, 22.75000000000000711 ) ) ;
#174 = ORIENTED_EDGE ( 'NONE', *, *, #1088, .T. ) ;
#175 = ORIENTED_EDGE ( 'NONE', *, *, #607, .F. ) ;
#176 = VERTEX_POINT ( 'NONE', #672 ) ;
#177 = ADVANCED_FACE ( 'NONE', ( #1076 ), #264, .F. ) ;
#178 = DIRECTION ( 'NONE',  ( 0.000000000000000000, 0.000000000000000000, 1.000000000000000000 ) ) ;
#179 = DIRECTION ( 'NONE',  ( -0.000000000000000000, 1.000000000000000000, -0.000000000000000000 ) ) ;
#180 = VECTOR ( 'NONE', #1315, 1000.000000000000000 ) ;
#181 = CARTESIAN_POINT ( 'NONE',  ( 16.00000000000000000, 5.000000000000000000, 21.70000000000000639 ) ) ;
#182 = AXIS2_PLACEMENT_3D ( 'NONE', #1211, #1305, #702 ) ;
#183 = VERTEX_POINT ( 'NONE', #1289 ) ;
#184 = VECTOR ( 'NONE', #824, 1000.000000000000000 ) ;
#185 = ORIENTED_EDGE ( 'NONE', *, *, #92, .T. ) ;
#186 = ADVANCED_FACE ( 'NONE', ( #560 ), #369, .F. ) ;
#187 = DIRECTION ( 'NONE',  ( -0.000000000000000000, 1.000000000000000000, -0.000000000000000000 ) ) ;
#188 = LINE ( 'NONE', #1089, #325 ) ;
#189 = EDGE_LOOP ( 'NONE', ( #405, #401 ) ) ;
#190 = ADVANCED_FACE ( 'NONE', ( #359 ), #767, .F. ) ;
#191 = ORIENTED_EDGE ( 'NONE', *, *, #1004, .T. ) ;
#192 = DIRECTION ( 'NONE',  ( 0.000000000000000000, 0.000000000000000000, 1.000000000000000000 ) ) ;
#193 = LINE ( 'NONE', #603, #456 ) ;
#194 = DIRECTION ( 'NONE',  ( 0.000000000000000000, 0.000000000000000000, 1.000000000000000000 ) ) ;
#195 = EDGE_CURVE ( 'NONE', #906, #673, #1061, .T. ) ;
#196 = ADVANCED_FACE ( 'NONE', ( #276 ), #797, .F. ) ;
#197 = ORIENTED_EDGE ( 'NONE', *, *, #144, .T. ) ;
#198 = EDGE_CURVE ( 'NONE', #678, #720, #832, .T. ) ;
#199 = DIRECTION ( 'NONE',  ( -0.000000000000000000, 1.000000000000000000, -0.000000000000000000 ) ) ;
#200 = LINE ( 'NONE', #1011, #409 ) ;
#201 = PLANE ( 'NONE',  #1159 ) ;
#202 = ORIENTED_EDGE ( 'NONE', *, *, #859, .T. ) ;
#203 = DIRECTION ( 'NONE',  ( -0.000000000000000000, 1.000000000000000000, -0.000000000000000000 ) ) ;
#204 = VECTOR ( 'NONE', #971, 1000.000000000000000 ) ;
#205 = VERTEX_POINT ( 'NONE', #1109 ) ;
#206 = CYLINDRICAL_SURFACE ( 'NONE', #892, 3.249999999999999556 ) ;
#207 = CARTESIAN_POINT ( 'NONE',  ( 16.00000000000000000, 2.000000000000000000, 20.00000000000000711 ) ) ;
#208 = FACE_OUTER_BOUND ( 'NONE', #837, .T. ) ;
#209 = EDGE_LOOP ( 'NONE', ( #281, #655, #1231, #708 ) ) ;
#210 = AXIS2_PLACEMENT_3D ( 'NONE', #1216, #596, #998 ) ;
#211 = CARTESIAN_POINT ( 'NONE',  ( -16.00000000000000000, 5.000000000000000000, -19.99999999999998934 ) ) ;
#212 = FACE_OUTER_BOUND ( 'NONE', #676, .T. ) ;
#213 = VERTEX_POINT ( 'NONE', #1096 ) ;
#214 = CARTESIAN_POINT ( 'NONE',  ( 11.49999999999999645, 0.000000000000000000, 22.75000000000000711 ) ) ;
#215 = DIRECTION ( 'NONE',  ( 0.000000000000000000, 0.000000000000000000, 1.000000000000000000 ) ) ;
#216 = ORIENTED_EDGE ( 'NONE', *, *, #894, .T. ) ;
#217 = VECTOR ( 'NONE', #988, 1000.000000000000000 ) ;
#218 = DIRECTION ( 'NONE',  ( -0.000000000000000000, 1.000000000000000000, -0.000000000000000000 ) ) ;
#219 = CARTESIAN_POINT ( 'NONE',  ( 16.00000000000000000, 5.000000000000000000, 20.00000000000000711 ) ) ;
#220 = DIRECTION ( 'NONE',  ( -1.000000000000000000, -0.000000000000000000, -0.000000000000000000 ) ) ;
#221 = ORIENTED_EDGE ( 'NONE', *, *, #578, .T. ) ;
#222 = EDGE_CURVE ( 'NONE', #1257, #720, #819, .T. ) ;
#223 = CYLINDRICAL_SURFACE ( 'NONE', #725, 1.024999999999994582 ) ;
#224 = FACE_OUTER_BOUND ( 'NONE', #528, .T. ) ;
#225 = FACE_BOUND ( 'NONE', #17, .T. ) ;
#226 = DIRECTION ( 'NONE',  ( -0.000000000000000000, 1.000000000000000000, -0.000000000000000000 ) ) ;
#227 = EDGE_LOOP ( 'NONE', ( #1050, #1272, #1136, #155, #1038, #1203, #601, #750 ) ) ;
#228 = DIRECTION ( 'NONE',  ( -1.000000000000000000, 0.000000000000000000, 7.228014483236695816E-17 ) ) ;
#229 = DIRECTION ( 'NONE',  ( 0.000000000000000000, -1.000000000000000000, 0.000000000000000000 ) ) ;
#230 = DIRECTION ( 'NONE',  ( -0.000000000000000000, 1.000000000000000000, -0.000000000000000000 ) ) ;
#231 = CARTESIAN_POINT ( 'NONE',  ( 0.000000000000000000, 8.000000000000000000, 0.000000000000000000 ) ) ;
#232 = EDGE_CURVE ( 'NONE', #160, #205, #772, .T. ) ;
#233 = ORIENTED_EDGE ( 'NONE', *, *, #232, .F. ) ;
#234 = DIRECTION ( 'NONE',  ( -0.000000000000000000, 1.000000000000000000, -0.000000000000000000 ) ) ;
#235 = VECTOR ( 'NONE', #135, 1000.000000000000000 ) ;
#236 = AXIS2_PLACEMENT_3D ( 'NONE', #903, #289, #301 ) ;
#237 = CARTESIAN_POINT ( 'NONE',  ( -16.00000000000000000, 2.000000000000000000, -18.29999999999999005 ) ) ;
#238 = CARTESIAN_POINT ( 'NONE',  ( -16.00000000000000000, 0.000000000000000000, 20.00000000000000355 ) ) ;
#239 = DIRECTION ( 'NONE',  ( -0.000000000000000000, -0.000000000000000000, 1.000000000000000000 ) ) ;
#240 = ADVANCED_FACE ( 'NONE', ( #510 ), #995, .T. ) ;
#241 = ADVANCED_FACE ( 'NONE', ( #717 ), #497, .F. ) ;
#242 = VERTEX_POINT ( 'NONE', #492 ) ;
#243 = AXIS2_PLACEMENT_3D ( 'NONE', #1142, #1221, #1033 ) ;
#244 = EDGE_CURVE ( 'NONE', #989, #247, #9, .T. ) ;
#245 = CARTESIAN_POINT ( 'NONE',  ( -16.00000000000000000, 5.000000000000000000, -23.24999999999998934 ) ) ;
#246 = DIRECTION ( 'NONE',  ( -0.000000000000000000, 1.000000000000000000, -0.000000000000000000 ) ) ;
#247 = VERTEX_POINT ( 'NONE', #896 ) ;
#248 = AXIS2_PLACEMENT_3D ( 'NONE', #618, #527, #931 ) ;
#249 = DIRECTION ( 'NONE',  ( 0.000000000000000000, 0.000000000000000000, 1.000000000000000000 ) ) ;
#250 = CARTESIAN_POINT ( 'NONE',  ( 16.00000000000000000, 0.000000000000000000, -18.29999999999999005 ) ) ;
#251 = ORIENTED_EDGE ( 'NONE', *, *, #382, .F. ) ;
#252 = FACE_BOUND ( 'NONE', #1304, .T. ) ;
#253 = CARTESIAN_POINT ( 'NONE',  ( -32.49999999999999289, 5.000000000000000000, 24.00000000000000711 ) ) ;
#254 = ORIENTED_EDGE ( 'NONE', *, *, #318, .T. ) ;
#255 = ORIENTED_EDGE ( 'NONE', *, *, #1127, .T. ) ;
#256 = CYLINDRICAL_SURFACE ( 'NONE', #399, 1.700000000000000178 ) ;
#257 = DIRECTION ( 'NONE',  ( 0.000000000000000000, 0.000000000000000000, 1.000000000000000000 ) ) ;
#258 = DIRECTION ( 'NONE',  ( 0.000000000000000000, 0.000000000000000000, 1.000000000000000000 ) ) ;
#259 = ORIENTED_EDGE ( 'NONE', *, *, #380, .T. ) ;
#260 = EDGE_LOOP ( 'NONE', ( #622, #1002, #418, #801 ) ) ;
#261 = EDGE_CURVE ( 'NONE', #817, #272, #152, .T. ) ;
#262 =( LENGTH_UNIT ( ) NAMED_UNIT ( * ) SI_UNIT ( .MILLI., .METRE. ) );
#263 = DIRECTION ( 'NONE',  ( -2.891205793294678326E-16, -0.000000000000000000, -1.000000000000000000 ) ) ;
#264 = PLANE ( 'NONE',  #357 ) ;
#265 = EDGE_LOOP ( 'NONE', ( #928, #1124, #1063, #1187 ) ) ;
#266 = VERTEX_POINT ( 'NONE', #1121 ) ;
#267 = DIRECTION ( 'NONE',  ( -0.000000000000000000, 1.000000000000000000, -0.000000000000000000 ) ) ;
#268 = AXIS2_PLACEMENT_3D ( 'NONE', #744, #33, #1260 ) ;
#269 = CARTESIAN_POINT ( 'NONE',  ( -16.00000000000000000, 5.000000000000000000, 16.75000000000000355 ) ) ;
#270 = ORIENTED_EDGE ( 'NONE', *, *, #382, .T. ) ;
#271 = ADVANCED_FACE ( 'NONE', ( #703 ), #206, .F. ) ;
#272 = VERTEX_POINT ( 'NONE', #109 ) ;
#273 = VECTOR ( 'NONE', #15, 1000.000000000000000 ) ;
#274 = AXIS2_PLACEMENT_3D ( 'NONE', #677, #1309, #1001 ) ;
#275 = FACE_OUTER_BOUND ( 'NONE', #484, .T. ) ;
#276 = FACE_OUTER_BOUND ( 'NONE', #1113, .T. ) ;
#277 = STYLED_ITEM ( 'NONE', ( #867 ), #787 ) ;
#278 = EDGE_CURVE ( 'NONE', #757, #112, #518, .T. ) ;
#279 = EDGE_CURVE ( 'NONE', #581, #242, #40, .T. ) ;
#280 = CARTESIAN_POINT ( 'NONE',  ( -23.50000000000000000, 1.650000000000001243, -17.99999999999999645 ) ) ;
#281 = ORIENTED_EDGE ( 'NONE', *, *, #1165, .T. ) ;
#282 = PLANE ( 'NONE',  #35 ) ;
#283 = DIRECTION ( 'NONE',  ( -0.000000000000000000, 1.000000000000000000, -0.000000000000000000 ) ) ;
#284 = CIRCLE ( 'NONE', #304, 1.700000000000000178 ) ;
#285 = CARTESIAN_POINT ( 'NONE',  ( 16.00000000000000000, 0.000000000000000000, 20.00000000000000711 ) ) ;
#286 = ORIENTED_EDGE ( 'NONE', *, *, #504, .T. ) ;
#287 = ORIENTED_EDGE ( 'NONE', *, *, #554, .T. ) ;
#288 = DIRECTION ( 'NONE',  ( -0.000000000000000000, 0.000000000000000000, 1.000000000000000000 ) ) ;
#289 = DIRECTION ( 'NONE',  ( -0.000000000000000000, 1.000000000000000000, -0.000000000000000000 ) ) ;
#290 = DIRECTION ( 'NONE',  ( -0.000000000000000000, 1.000000000000000000, -0.000000000000000000 ) ) ;
#291 = ORIENTED_EDGE ( 'NONE', *, *, #324, .F. ) ;
#292 = ORIENTED_EDGE ( 'NONE', *, *, #478, .F. ) ;
#293 = CIRCLE ( 'NONE', #1172, 1.024999999999998135 ) ;
#294 = DIRECTION ( 'NONE',  ( -0.000000000000000000, 1.000000000000000000, -0.000000000000000000 ) ) ;
#295 = DIRECTION ( 'NONE',  ( -0.000000000000000000, 1.000000000000000000, -0.000000000000000000 ) ) ;
#296 = DIRECTION ( 'NONE',  ( -0.000000000000000000, 1.000000000000000000, -0.000000000000000000 ) ) ;
#297 = ORIENTED_EDGE ( 'NONE', *, *, #857, .T. ) ;
#298 = DIRECTION ( 'NONE',  ( -0.000000000000000000, 1.000000000000000000, -0.000000000000000000 ) ) ;
#299 = ORIENTED_EDGE ( 'NONE', *, *, #662, .T. ) ;
#300 = CARTESIAN_POINT ( 'NONE',  ( 16.00000000000000000, 5.000000000000000000, -16.74999999999998934 ) ) ;
#301 = DIRECTION ( 'NONE',  ( 0.000000000000000000, 0.000000000000000000, 1.000000000000000000 ) ) ;
#302 = DIRECTION ( 'NONE',  ( -0.000000000000000000, 1.000000000000000000, -0.000000000000000000 ) ) ;
#303 = VERTEX_POINT ( 'NONE', #93 ) ;
#304 = AXIS2_PLACEMENT_3D ( 'NONE', #285, #1291, #698 ) ;
#305 = CARTESIAN_POINT ( 'NONE',  ( 16.00000000000000000, 2.000000000000000000, -18.29999999999999005 ) ) ;
#306 = DIRECTION ( 'NONE',  ( 0.000000000000000000, 0.000000000000000000, 1.000000000000000000 ) ) ;
#307 = CIRCLE ( 'NONE', #1120, 3.249999999999999556 ) ;
#308 = VERTEX_POINT ( 'NONE', #902 ) ;
#309 = CARTESIAN_POINT ( 'NONE',  ( -16.00000000000000000, 2.000000000000000000, -19.99999999999998934 ) ) ;
#310 = DIRECTION ( 'NONE',  ( 0.000000000000000000, 0.000000000000000000, 1.000000000000000000 ) ) ;
#311 = LINE ( 'NONE', #915, #1273 ) ;
#312 = LINE ( 'NONE', #323, #877 ) ;
#313 = ORIENTED_EDGE ( 'NONE', *, *, #143, .F. ) ;
#314 = CIRCLE ( 'NONE', #1065, 3.249999999999999556 ) ;
#315 = CARTESIAN_POINT ( 'NONE',  ( 16.00000000000000000, 0.000000000000000000, 21.70000000000000639 ) ) ;
#316 = VERTEX_POINT ( 'NONE', #790 ) ;
#317 = LINE ( 'NONE', #137, #171 ) ;
#318 = EDGE_CURVE ( 'NONE', #1080, #615, #1104, .T. ) ;
#319 = AXIS2_PLACEMENT_3D ( 'NONE', #231, #1255, #543 ) ;
#320 = EDGE_LOOP ( 'NONE', ( #1007, #118, #1180, #1290 ) ) ;
#321 = CARTESIAN_POINT ( 'NONE',  ( -32.50000000000000000, 5.000000000000000000, -23.99999999999999289 ) ) ;
#322 = CYLINDRICAL_SURFACE ( 'NONE', #1099, 1.024999999999994582 ) ;
#323 = CARTESIAN_POINT ( 'NONE',  ( -32.49999999999999289, 5.000000000000000000, 24.00000000000000711 ) ) ;
#324 = EDGE_CURVE ( 'NONE', #495, #176, #661, .T. ) ;
#325 = VECTOR ( 'NONE', #574, 1000.000000000000000 ) ;
#326 = CYLINDRICAL_SURFACE ( 'NONE', #644, 1.024999999999994582 ) ;
#327 = VERTEX_POINT ( 'NONE', #709 ) ;
#328 = LINE ( 'NONE', #131, #113 ) ;
#329 = EDGE_LOOP ( 'NONE', ( #108, #870, #1297, #784, #373, #138, #1233, #292 ) ) ;
#330 = DIRECTION ( 'NONE',  ( 7.228014483236695816E-17, 0.000000000000000000, 1.000000000000000000 ) ) ;
#331 = CARTESIAN_POINT ( 'NONE',  ( -23.50000000000000000, 1.650000000000001243, 6.000000000000008882 ) ) ;
#332 = ADVANCED_FACE ( 'NONE', ( #1010 ), #223, .F. ) ;
#333 = CARTESIAN_POINT ( 'NONE',  ( -16.00000000000000000, 5.000000000000000000, 20.00000000000000355 ) ) ;
#334 = VERTEX_POINT ( 'NONE', #938 ) ;
#335 = ORIENTED_EDGE ( 'NONE', *, *, #954, .F. ) ;
#336 = CIRCLE ( 'NONE', #675, 1.024999999999998135 ) ;
#337 = EDGE_CURVE ( 'NONE', #944, #62, #1246, .T. ) ;
#338 = PLANE ( 'NONE',  #1041 ) ;
#339 = EDGE_CURVE ( 'NONE', #513, #488, #1145, .T. ) ;
#340 = DIRECTION ( 'NONE',  ( 0.000000000000000000, -0.000000000000000000, -1.000000000000000000 ) ) ;
#341 = DIRECTION ( 'NONE',  ( -1.000000000000000000, 0.000000000000000000, 2.891205793294678326E-16 ) ) ;
#342 = DIRECTION ( 'NONE',  ( 0.000000000000000000, 0.000000000000000000, 1.000000000000000000 ) ) ;
#343 = ORIENTED_EDGE ( 'NONE', *, *, #1169, .F. ) ;
#344 = ADVANCED_FACE ( 'NONE', ( #639 ), #1030, .F. ) ;
#345 = DIRECTION ( 'NONE',  ( 0.000000000000000000, 0.000000000000000000, 1.000000000000000000 ) ) ;
#346 = AXIS2_PLACEMENT_3D ( 'NONE', #207, #295, #710 ) ;
#347 = CARTESIAN_POINT ( 'NONE',  ( -16.00000000000000000, 5.000000000000000000, -19.99999999999998934 ) ) ;
#348 = CARTESIAN_POINT ( 'NONE',  ( -16.00000000000000000, 2.000000000000000000, -19.99999999999998934 ) ) ;
#349 = AXIS2_PLACEMENT_3D ( 'NONE', #579, #980, #1214 ) ;
#350 = ORIENTED_EDGE ( 'NONE', *, *, #668, .T. ) ;
#351 = MECHANICAL_DESIGN_GEOMETRIC_PRESENTATION_REPRESENTATION (  '', ( #277 ), #1267 ) ;
#352 = PLANE ( 'NONE',  #356 ) ;
#353 = DIRECTION ( 'NONE',  ( 0.000000000000000000, 0.000000000000000000, 1.000000000000000000 ) ) ;
#354 = ORIENTED_EDGE ( 'NONE', *, *, #279, .T. ) ;
#355 = AXIS2_PLACEMENT_3D ( 'NONE', #111, #296, #840 ) ;
#356 = AXIS2_PLACEMENT_3D ( 'NONE', #665, #759, #1160 ) ;
#357 = AXIS2_PLACEMENT_3D ( 'NONE', #165, #575, #976 ) ;
#358 = DIRECTION ( 'NONE',  ( -0.000000000000000000, 1.000000000000000000, -0.000000000000000000 ) ) ;
#359 = FACE_OUTER_BOUND ( 'NONE', #170, .T. ) ;
#360 = LINE ( 'NONE', #253, #795 ) ;
#361 = ORIENTED_EDGE ( 'NONE', *, *, #477, .F. ) ;
#362 = ADVANCED_FACE ( 'NONE', ( #428 ), #929, .F. ) ;
#363 = CARTESIAN_POINT ( 'NONE',  ( -16.00000000000000000, 2.000000000000000000, 20.00000000000000355 ) ) ;
#364 = CARTESIAN_POINT ( 'NONE',  ( -16.00000000000000000, 5.000000000000000000, -21.69999999999998863 ) ) ;
#365 = ADVANCED_FACE ( 'NONE', ( #828 ), #526, .F. ) ;
#366 = VERTEX_POINT ( 'NONE', #623 ) ;
#367 = VERTEX_POINT ( 'NONE', #127 ) ;
#368 = CARTESIAN_POINT ( 'NONE',  ( 16.00000000000000000, 5.000000000000000000, -19.99999999999998934 ) ) ;
#369 = PLANE ( 'NONE',  #1102 ) ;
#370 = FACE_OUTER_BOUND ( 'NONE', #75, .T. ) ;
#371 = EDGE_CURVE ( 'NONE', #1090, #316, #314, .T. ) ;
#372 = VERTEX_POINT ( 'NONE', #214 ) ;
#373 = ORIENTED_EDGE ( 'NONE', *, *, #554, .F. ) ;
#374 = AXIS2_PLACEMENT_3D ( 'NONE', #1048, #133, #31 ) ;
#375 = EDGE_CURVE ( 'NONE', #407, #372, #846, .T. ) ;
#376 = EDGE_CURVE ( 'NONE', #1114, #723, #490, .T. ) ;
#377 = LINE ( 'NONE', #81, #1266 ) ;
#378 = EDGE_LOOP ( 'NONE', ( #669, #919 ) ) ;
#379 = ORIENTED_EDGE ( 'NONE', *, *, #1021, .T. ) ;
#380 = EDGE_CURVE ( 'NONE', #444, #808, #600, .T. ) ;
#381 = AXIS2_PLACEMENT_3D ( 'NONE', #724, #1235, #119 ) ;
#382 = EDGE_CURVE ( 'NONE', #176, #495, #645, .T. ) ;
#383 = CARTESIAN_POINT ( 'NONE',  ( -16.00000000000000000, 5.000000000000000000, -16.74999999999998934 ) ) ;
#384 = CIRCLE ( 'NONE', #107, 1.024999999999991251 ) ;
#385 = DIRECTION ( 'NONE',  ( -1.000000000000000000, -0.000000000000000000, -0.000000000000000000 ) ) ;
#386 = VERTEX_POINT ( 'NONE', #94 ) ;
#387 = SHAPE_DEFINITION_REPRESENTATION ( #501, #829 ) ;
#388 = ORIENTED_EDGE ( 'NONE', *, *, #888, .F. ) ;
#389 = ORIENTED_EDGE ( 'NONE', *, *, #1046, .T. ) ;
#390 = AXIS2_PLACEMENT_3D ( 'NONE', #1168, #659, #340 ) ;
#391 = CARTESIAN_POINT ( 'NONE',  ( -16.00000000000000000, 5.000000000000000000, -19.99999999999998934 ) ) ;
#392 = CARTESIAN_POINT ( 'NONE',  ( 16.00000000000000000, 2.000000000000000000, -19.99999999999998934 ) ) ;
#393 = DIRECTION ( 'NONE',  ( 1.000000000000000000, 0.000000000000000000, 0.000000000000000000 ) ) ;
#394 = ORIENTED_EDGE ( 'NONE', *, *, #991, .T. ) ;
#395 = PRODUCT_CONTEXT ( 'NONE', #1210, 'mechanical' ) ;
#396 = CARTESIAN_POINT ( 'NONE',  ( -23.50000000000000000, 8.000000000000000000, -7.024999999999986144 ) ) ;
#397 = FACE_OUTER_BOUND ( 'NONE', #952, .T. ) ;
#398 = CYLINDRICAL_SURFACE ( 'NONE', #349, 3.249999999999999556 ) ;
#399 = AXIS2_PLACEMENT_3D ( 'NONE', #368, #1086, #994 ) ;
#400 = EDGE_LOOP ( 'NONE', ( #802, #1284, #898, #691 ) ) ;
#401 = ORIENTED_EDGE ( 'NONE', *, *, #1279, .F. ) ;
#402 = DIRECTION ( 'NONE',  ( -0.000000000000000000, 1.000000000000000000, -0.000000000000000000 ) ) ;
#403 = DIRECTION ( 'NONE',  ( -0.000000000000000000, 1.000000000000000000, -0.000000000000000000 ) ) ;
#404 = CARTESIAN_POINT ( 'NONE',  ( -23.50000000000000000, 8.000000000000000000, -4.974999999999996980 ) ) ;
#405 = ORIENTED_EDGE ( 'NONE', *, *, #376, .F. ) ;
#406 = DIRECTION ( 'NONE',  ( -0.000000000000000000, 1.000000000000000000, -0.000000000000000000 ) ) ;
#407 = VERTEX_POINT ( 'NONE', #10 ) ;
#408 = CIRCLE ( 'NONE', #999, 1.700000000000000178 ) ;
#409 = VECTOR ( 'NONE', #617, 1000.000000000000000 ) ;
#410 = DIRECTION ( 'NONE',  ( 0.000000000000000000, 0.000000000000000000, 1.000000000000000000 ) ) ;
#411 = DIRECTION ( 'NONE',  ( -0.000000000000000000, 1.000000000000000000, -0.000000000000000000 ) ) ;
#412 = CARTESIAN_POINT ( 'NONE',  ( -32.49999999999999289, 5.000000000000000000, 24.00000000000000711 ) ) ;
#413 = ORIENTED_EDGE ( 'NONE', *, *, #700, .T. ) ;
#414 = PRESENTATION_LAYER_ASSIGNMENT (  '', '', ( #277 ) ) ;
#415 = DIRECTION ( 'NONE',  ( 0.000000000000000000, 0.000000000000000000, 1.000000000000000000 ) ) ;
#416 = DIRECTION ( 'NONE',  ( -0.000000000000000000, 1.000000000000000000, -0.000000000000000000 ) ) ;
#417 = LINE ( 'NONE', #835, #1025 ) ;
#418 = ORIENTED_EDGE ( 'NONE', *, *, #1279, .T. ) ;
#419 = DIRECTION ( 'NONE',  ( 1.000000000000000000, 0.000000000000000000, 0.000000000000000000 ) ) ;
#420 = DIRECTION ( 'NONE',  ( 0.000000000000000000, 0.000000000000000000, 1.000000000000000000 ) ) ;
#421 = DIRECTION ( 'NONE',  ( -7.228014483236695816E-17, -0.000000000000000000, -1.000000000000000000 ) ) ;
#422 = DIRECTION ( 'NONE',  ( 0.000000000000000000, 0.000000000000000000, 1.000000000000000000 ) ) ;
#423 = ORIENTED_EDGE ( 'NONE', *, *, #429, .T. ) ;
#424 = EDGE_CURVE ( 'NONE', #266, #509, #683, .T. ) ;
#425 = CARTESIAN_POINT ( 'NONE',  ( -23.50000000000000000, 1.650000000000001243, -17.99999999999999645 ) ) ;
#426 = DIRECTION ( 'NONE',  ( -0.000000000000000000, 1.000000000000000000, -0.000000000000000000 ) ) ;
#427 = ORIENTED_EDGE ( 'NONE', *, *, #758, .F. ) ;
#428 = FACE_OUTER_BOUND ( 'NONE', #1108, .T. ) ;
#429 = EDGE_CURVE ( 'NONE', #334, #459, #726, .T. ) ;
#430 = DIRECTION ( 'NONE',  ( -0.000000000000000000, 1.000000000000000000, -0.000000000000000000 ) ) ;
#431 = DIRECTION ( 'NONE',  ( -0.000000000000000000, 1.000000000000000000, -0.000000000000000000 ) ) ;
#432 = ORIENTED_EDGE ( 'NONE', *, *, #1182, .T. ) ;
#433 = VECTOR ( 'NONE', #498, 1000.000000000000000 ) ;
#434 = FACE_BOUND ( 'NONE', #593, .T. ) ;
#435 = FACE_OUTER_BOUND ( 'NONE', #814, .T. ) ;
#436 = VERTEX_POINT ( 'NONE', #1130 ) ;
#437 = AXIS2_PLACEMENT_3D ( 'NONE', #211, #230, #848 ) ;
#438 = ADVANCED_FACE ( 'NONE', ( #397 ), #87, .F. ) ;
#439 = CARTESIAN_POINT ( 'NONE',  ( -21.00000000000000000, 8.000000000000000000, -23.99999999999999289 ) ) ;
#440 = FACE_OUTER_BOUND ( 'NONE', #916, .T. ) ;
#441 = DIRECTION ( 'NONE',  ( 0.000000000000000000, 0.000000000000000000, 1.000000000000000000 ) ) ;
#442 = CYLINDRICAL_SURFACE ( 'NONE', #268, 1.700000000000000178 ) ;
#443 = DIRECTION ( 'NONE',  ( -0.000000000000000000, 1.000000000000000000, -0.000000000000000000 ) ) ;
#444 = VERTEX_POINT ( 'NONE', #1 ) ;
#445 = EDGE_CURVE ( 'NONE', #386, #723, #1122, .T. ) ;
#446 = EDGE_CURVE ( 'NONE', #213, #407, #193, .T. ) ;
#447 = FACE_OUTER_BOUND ( 'NONE', #792, .T. ) ;
#448 = DIRECTION ( 'NONE',  ( -0.000000000000000000, -0.000000000000000000, 1.000000000000000000 ) ) ;
#449 = ORIENTED_EDGE ( 'NONE', *, *, #424, .F. ) ;
#450 = ORIENTED_EDGE ( 'NONE', *, *, #660, .F. ) ;
#451 = VECTOR ( 'NONE', #229, 1000.000000000000000 ) ;
#452 = DIRECTION ( 'NONE',  ( -1.000000000000000000, -0.000000000000000000, -0.000000000000000000 ) ) ;
#453 = PLANE ( 'NONE',  #117 ) ;
#454 = ORIENTED_EDGE ( 'NONE', *, *, #1178, .F. ) ;
#455 = DIRECTION ( 'NONE',  ( 0.000000000000000000, -0.000000000000000000, 1.000000000000000000 ) ) ;
#456 = VECTOR ( 'NONE', #102, 1000.000000000000000 ) ;
#457 = CARTESIAN_POINT ( 'NONE',  ( -23.50000000000000000, 8.000000000000001776, -7.024999999999982592 ) ) ;
#458 = CIRCLE ( 'NONE', #274, 1.700000000000000178 ) ;
#459 = VERTEX_POINT ( 'NONE', #1225 ) ;
#460 = AXIS2_PLACEMENT_3D ( 'NONE', #561, #37, #44 ) ;
#461 = CARTESIAN_POINT ( 'NONE',  ( -23.50000000000000000, 1.650000000000000799, -17.99999999999999645 ) ) ;
#462 = SURFACE_STYLE_FILL_AREA ( #768 ) ;
#463 = CARTESIAN_POINT ( 'NONE',  ( 32.49999999999999289, 0.000000000000000000, -23.99999999999999289 ) ) ;
#464 = EDGE_CURVE ( 'NONE', #1093, #733, #751, .T. ) ;
#465 = ORIENTED_EDGE ( 'NONE', *, *, #1051, .F. ) ;
#466 = VECTOR ( 'NONE', #162, 1000.000000000000000 ) ;
#467 = EDGE_CURVE ( 'NONE', #308, #515, #516, .T. ) ;
#468 = DIRECTION ( 'NONE',  ( -0.000000000000000000, 1.000000000000000000, -0.000000000000000000 ) ) ;
#469 = LINE ( 'NONE', #364, #1028 ) ;
#470 = ORIENTED_EDGE ( 'NONE', *, *, #1188, .T. ) ;
#471 = EDGE_CURVE ( 'NONE', #884, #327, #200, .T. ) ;
#472 = DIRECTION ( 'NONE',  ( -0.000000000000000000, 1.000000000000000000, -0.000000000000000000 ) ) ;
#473 = DIRECTION ( 'NONE',  ( -1.000000000000000000, -0.000000000000000000, -0.000000000000000000 ) ) ;
#474 = CIRCLE ( 'NONE', #1217, 3.249999999999999556 ) ;
#475 = ORIENTED_EDGE ( 'NONE', *, *, #1037, .F. ) ;
#476 = ORIENTED_EDGE ( 'NONE', *, *, #1037, .T. ) ;
#477 = EDGE_CURVE ( 'NONE', #606, #746, #4, .T. ) ;
#478 = EDGE_CURVE ( 'NONE', #372, #1080, #328, .T. ) ;
#479 = CARTESIAN_POINT ( 'NONE',  ( 16.00000000000000000, 2.000000000000000000, -19.99999999999998934 ) ) ;
#480 = DIRECTION ( 'NONE',  ( 0.000000000000000000, 0.000000000000000000, 1.000000000000000000 ) ) ;
#481 = ORIENTED_EDGE ( 'NONE', *, *, #810, .F. ) ;
#482 = EDGE_CURVE ( 'NONE', #176, #444, #538, .T. ) ;
#483 = VERTEX_POINT ( 'NONE', #1024 ) ;
#484 = EDGE_LOOP ( 'NONE', ( #1245, #481, #911, #605 ) ) ;
#485 = CIRCLE ( 'NONE', #827, 1.024999999999991251 ) ;
#486 = FACE_OUTER_BOUND ( 'NONE', #701, .T. ) ;
#487 = CARTESIAN_POINT ( 'NONE',  ( 11.49999999999999645, 5.000000000000000000, 22.75000000000000711 ) ) ;
#488 = VERTEX_POINT ( 'NONE', #958 ) ;
#489 = ORIENTED_EDGE ( 'NONE', *, *, #278, .T. ) ;
#490 = CIRCLE ( 'NONE', #80, 1.700000000000000178 ) ;
#491 = CARTESIAN_POINT ( 'NONE',  ( 16.00000000000000000, 5.000000000000000000, 18.30000000000000782 ) ) ;
#492 = CARTESIAN_POINT ( 'NONE',  ( 16.00000000000000000, 2.000000000000000000, -21.69999999999998863 ) ) ;
#493 = AXIS2_PLACEMENT_3D ( 'NONE', #843, #136, #722 ) ;
#494 = LINE ( 'NONE', #1082, #685 ) ;
#495 = VERTEX_POINT ( 'NONE', #1035 ) ;
#496 = DIRECTION ( 'NONE',  ( -0.000000000000000000, 1.000000000000000000, -0.000000000000000000 ) ) ;
#497 = CYLINDRICAL_SURFACE ( 'NONE', #839, 1.700000000000000178 ) ;
#498 = DIRECTION ( 'NONE',  ( 1.000000000000000000, 0.000000000000000000, 0.000000000000000000 ) ) ;
#499 = DIRECTION ( 'NONE',  ( -0.000000000000000000, 1.000000000000000000, -0.000000000000000000 ) ) ;
#500 = ORIENTED_EDGE ( 'NONE', *, *, #105, .F. ) ;
#501 = PRODUCT_DEFINITION_SHAPE ( 'NONE', 'NONE',  #149 ) ;
#502 = ORIENTED_EDGE ( 'NONE', *, *, #1274, .T. ) ;
#503 = DIRECTION ( 'NONE',  ( 0.000000000000000000, 0.000000000000000000, 1.000000000000000000 ) ) ;
#504 = EDGE_CURVE ( 'NONE', #30, #884, #417, .T. ) ;
#505 = CARTESIAN_POINT ( 'NONE',  ( -16.00000000000000000, 2.000000000000000000, 20.00000000000000355 ) ) ;
#506 = CARTESIAN_POINT ( 'NONE',  ( -32.50000000000000000, 8.000000000000000000, -23.99999999999999289 ) ) ;
#507 = VECTOR ( 'NONE', #358, 1000.000000000000000 ) ;
#508 = ORIENTED_EDGE ( 'NONE', *, *, #6, .F. ) ;
#509 = VERTEX_POINT ( 'NONE', #945 ) ;
#510 = FACE_OUTER_BOUND ( 'NONE', #1193, .T. ) ;
#511 = CARTESIAN_POINT ( 'NONE',  ( 16.00000000000000000, 0.000000000000000000, -19.99999999999998934 ) ) ;
#512 = CARTESIAN_POINT ( 'NONE',  ( -23.50000000000000000, 1.650000000000001243, 7.025000000000006573 ) ) ;
#513 = VERTEX_POINT ( 'NONE', #745 ) ;
#514 = LINE ( 'NONE', #743, #235 ) ;
#515 = VERTEX_POINT ( 'NONE', #29 ) ;
#516 = CIRCLE ( 'NONE', #346, 3.249999999999999556 ) ;
#517 = EDGE_CURVE ( 'NONE', #515, #56, #317, .T. ) ;
#518 = LINE ( 'NONE', #608, #1295 ) ;
#519 = DIRECTION ( 'NONE',  ( -0.000000000000000000, 1.000000000000000000, -0.000000000000000000 ) ) ;
#520 = CARTESIAN_POINT ( 'NONE',  ( -14.30000000000000071, 2.000000000000000000, 20.00000000000000355 ) ) ;
#521 = ORIENTED_EDGE ( 'NONE', *, *, #41, .T. ) ;
#522 = DIRECTION ( 'NONE',  ( -0.000000000000000000, 1.000000000000000000, -0.000000000000000000 ) ) ;
#523 = CARTESIAN_POINT ( 'NONE',  ( -20.99999999999999645, 8.000000000000000000, 24.00000000000000711 ) ) ;
#524 = EDGE_CURVE ( 'NONE', #436, #809, #918, .T. ) ;
#525 = ORIENTED_EDGE ( 'NONE', *, *, #939, .T. ) ;
#526 = CYLINDRICAL_SURFACE ( 'NONE', #556, 3.249999999999999556 ) ;
#527 = DIRECTION ( 'NONE',  ( -0.000000000000000000, 1.000000000000000000, -0.000000000000000000 ) ) ;
#528 = EDGE_LOOP ( 'NONE', ( #1154, #1195 ) ) ;
#529 = VECTOR ( 'NONE', #421, 1000.000000000000000 ) ;
#530 = CIRCLE ( 'NONE', #163, 1.700000000000000178 ) ;
#531 = FACE_OUTER_BOUND ( 'NONE', #845, .T. ) ;
#532 = VERTEX_POINT ( 'NONE', #732 ) ;
#533 = EDGE_LOOP ( 'NONE', ( #587, #1298, #932, #191 ) ) ;
#534 = CARTESIAN_POINT ( 'NONE',  ( -23.50000000000000000, 8.000000000000000000, 18.00000000000001066 ) ) ;
#535 = LINE ( 'NONE', #1131, #693 ) ;
#536 = DIRECTION ( 'NONE',  ( -0.000000000000000000, 1.000000000000000000, -0.000000000000000000 ) ) ;
#537 = PLANE ( 'NONE',  #319 ) ;
#538 = LINE ( 'NONE', #650, #273 ) ;
#539 = ORIENTED_EDGE ( 'NONE', *, *, #668, .F. ) ;
#540 = AXIS2_PLACEMENT_3D ( 'NONE', #1248, #406, #13 ) ;
#541 = LINE ( 'NONE', #1259, #507 ) ;
#542 = LINE ( 'NONE', #54, #627 ) ;
#543 = DIRECTION ( 'NONE',  ( 0.000000000000000000, -0.000000000000000000, 1.000000000000000000 ) ) ;
#544 = DIRECTION ( 'NONE',  ( 0.000000000000000000, 0.000000000000000000, 1.000000000000000000 ) ) ;
#545 = EDGE_LOOP ( 'NONE', ( #686, #185 ) ) ;
#546 = UNCERTAINTY_MEASURE_WITH_UNIT (LENGTH_MEASURE( 1.000000000000000082E-05 ), #262, 'distance_accuracy_value', 'NONE');
#547 = DIRECTION ( 'NONE',  ( 1.000000000000000000, 0.000000000000000000, 0.000000000000000000 ) ) ;
#548 =( LENGTH_UNIT ( ) NAMED_UNIT ( * ) SI_UNIT ( .MILLI., .METRE. ) );
#549 = CARTESIAN_POINT ( 'NONE',  ( -23.50000000000000000, 8.000000000000000000, 19.02500000000000213 ) ) ;
#550 = DIRECTION ( 'NONE',  ( -0.000000000000000000, 1.000000000000000000, -0.000000000000000000 ) ) ;
#551 = ORIENTED_EDGE ( 'NONE', *, *, #810, .T. ) ;
#552 = VECTOR ( 'NONE', #1196, 1000.000000000000000 ) ;
#553 = LINE ( 'NONE', #53, #451 ) ;
#554 = EDGE_CURVE ( 'NONE', #112, #62, #1137, .T. ) ;
#555 = CARTESIAN_POINT ( 'NONE',  ( -16.00000000000000000, 0.000000000000000000, -18.29999999999999005 ) ) ;
#556 = AXIS2_PLACEMENT_3D ( 'NONE', #24, #734, #18 ) ;
#557 = EDGE_LOOP ( 'NONE', ( #937, #577, #34, #965 ) ) ;
#558 = ADVANCED_FACE ( 'NONE', ( #630 ), #568, .F. ) ;
#559 = FACE_OUTER_BOUND ( 'NONE', #7, .T. ) ;
#560 = FACE_OUTER_BOUND ( 'NONE', #865, .T. ) ;
#561 = CARTESIAN_POINT ( 'NONE',  ( 0.000000000000000000, 0.000000000000000000, 0.000000000000000000 ) ) ;
#562 = VECTOR ( 'NONE', #800, 1000.000000000000000 ) ;
#563 = ORIENTED_EDGE ( 'NONE', *, *, #198, .F. ) ;
#564 = EDGE_CURVE ( 'NONE', #884, #73, #312, .T. ) ;
#565 = LINE ( 'NONE', #245, #1146 ) ;
#566 = SURFACE_SIDE_STYLE ('',( #462 ) ) ;
#567 = DIRECTION ( 'NONE',  ( 0.000000000000000000, 0.000000000000000000, 1.000000000000000000 ) ) ;
#568 = CYLINDRICAL_SURFACE ( 'NONE', #946, 3.249999999999999556 ) ;
#569 = EDGE_LOOP ( 'NONE', ( #454, #699 ) ) ;
#570 = EDGE_CURVE ( 'NONE', #205, #160, #408, .T. ) ;
#571 = VECTOR ( 'NONE', #858, 1000.000000000000000 ) ;
#572 = VERTEX_POINT ( 'NONE', #315 ) ;
#573 = FACE_OUTER_BOUND ( 'NONE', #1119, .T. ) ;
#574 = DIRECTION ( 'NONE',  ( -0.000000000000000000, 1.000000000000000000, -0.000000000000000000 ) ) ;
#575 = DIRECTION ( 'NONE',  ( 0.000000000000000000, -1.000000000000000000, 0.000000000000000000 ) ) ;
#576 = ADVANCED_FACE ( 'NONE', ( #912 ), #635, .F. ) ;
#577 = ORIENTED_EDGE ( 'NONE', *, *, #836, .T. ) ;
#578 = EDGE_CURVE ( 'NONE', #663, #1257, #293, .T. ) ;
#579 = CARTESIAN_POINT ( 'NONE',  ( -16.00000000000000000, 5.000000000000000000, 20.00000000000000355 ) ) ;
#580 = AXIS2_PLACEMENT_3D ( 'NONE', #110, #403, #1238 ) ;
#581 = VERTEX_POINT ( 'NONE', #305 ) ;
#582 = ORIENTED_EDGE ( 'NONE', *, *, #222, .T. ) ;
#583 = CIRCLE ( 'NONE', #818, 3.249999999999999556 ) ;
#584 = DIRECTION ( 'NONE',  ( -0.000000000000000000, 1.000000000000000000, -0.000000000000000000 ) ) ;
#585 = CARTESIAN_POINT ( 'NONE',  ( -20.99999999999999645, 5.000000000000000000, 24.00000000000000711 ) ) ;
#586 = ORIENTED_EDGE ( 'NONE', *, *, #940, .T. ) ;
#587 = ORIENTED_EDGE ( 'NONE', *, *, #1253, .F. ) ;
#588 = CIRCLE ( 'NONE', #16, 1.024999999999991251 ) ;
#589 = CARTESIAN_POINT ( 'NONE',  ( -23.50000000000000000, 8.000000000000000000, 4.975000000000013856 ) ) ;
#590 = DIRECTION ( 'NONE',  ( -0.000000000000000000, 1.000000000000000000, -0.000000000000000000 ) ) ;
#591 = AXIS2_PLACEMENT_3D ( 'NONE', #38, #55, #1163 ) ;
#592 = DIRECTION ( 'NONE',  ( -0.000000000000000000, 1.000000000000000000, -0.000000000000000000 ) ) ;
#593 = EDGE_LOOP ( 'NONE', ( #413, #893 ) ) ;
#594 = ORIENTED_EDGE ( 'NONE', *, *, #985, .F. ) ;
#595 = VECTOR ( 'NONE', #419, 1000.000000000000000 ) ;
#596 = DIRECTION ( 'NONE',  ( -0.000000000000000000, 1.000000000000000000, -0.000000000000000000 ) ) ;
#597 = LINE ( 'NONE', #181, #156 ) ;
#598 = ORIENTED_EDGE ( 'NONE', *, *, #98, .T. ) ;
#599 = AXIS2_PLACEMENT_3D ( 'NONE', #425, #522, #1118 ) ;
#600 = CIRCLE ( 'NONE', #1198, 1.024999999999991251 ) ;
#601 = ORIENTED_EDGE ( 'NONE', *, *, #471, .F. ) ;
#602 = DIRECTION ( 'NONE',  ( -0.000000000000000000, 1.000000000000000000, -0.000000000000000000 ) ) ;
#603 = CARTESIAN_POINT ( 'NONE',  ( -11.50000000000000000, 5.000000000000000000, 22.75000000000000711 ) ) ;
#604 = DIRECTION ( 'NONE',  ( 1.000000000000000000, 0.000000000000000000, 0.000000000000000000 ) ) ;
#605 = ORIENTED_EDGE ( 'NONE', *, *, #337, .T. ) ;
#606 = VERTEX_POINT ( 'NONE', #721 ) ;
#607 = EDGE_CURVE ( 'NONE', #483, #977, #1110, .T. ) ;
#608 = CARTESIAN_POINT ( 'NONE',  ( 32.49999999999999289, 5.000000000000000000, -23.99999999999999289 ) ) ;
#609 = DIRECTION ( 'NONE',  ( -0.000000000000000000, 1.000000000000000000, -0.000000000000000000 ) ) ;
#610 = CARTESIAN_POINT ( 'NONE',  ( -16.00000000000000000, 2.000000000000000000, -23.24999999999998934 ) ) ;
#611 = EDGE_LOOP ( 'NONE', ( #174, #1003, #1020, #470 ) ) ;
#612 = CARTESIAN_POINT ( 'NONE',  ( 11.49999999999999645, 5.000000000000000000, 24.00000000000000711 ) ) ;
#613 = EDGE_CURVE ( 'NONE', #62, #513, #514, .T. ) ;
#614 = ADVANCED_FACE ( 'NONE', ( #1317 ), #326, .F. ) ;
#615 = VERTEX_POINT ( 'NONE', #612 ) ;
#616 = CARTESIAN_POINT ( 'NONE',  ( -23.50000000000000000, 8.000000000000001776, -5.999999999999991118 ) ) ;
#617 = DIRECTION ( 'NONE',  ( -7.228014483236695816E-17, -0.000000000000000000, -1.000000000000000000 ) ) ;
#618 = CARTESIAN_POINT ( 'NONE',  ( -23.50000000000000000, 8.000000000000000000, 18.00000000000001066 ) ) ;
#619 = ORIENTED_EDGE ( 'NONE', *, *, #222, .F. ) ;
#620 = CARTESIAN_POINT ( 'NONE',  ( -23.50000000000000000, 8.000000000000001776, -4.975000000000000533 ) ) ;
#621 = ORIENTED_EDGE ( 'NONE', *, *, #517, .T. ) ;
#622 = ORIENTED_EDGE ( 'NONE', *, *, #92, .F. ) ;
#623 = CARTESIAN_POINT ( 'NONE',  ( 32.50000000000000711, 5.000000000000000000, 24.00000000000000711 ) ) ;
#624 = CIRCLE ( 'NONE', #1201, 3.249999999999999556 ) ;
#625 = LINE ( 'NONE', #506, #124 ) ;
#626 = EDGE_LOOP ( 'NONE', ( #161, #594 ) ) ;
#627 = VECTOR ( 'NONE', #448, 1000.000000000000000 ) ;
#628 = DIRECTION ( 'NONE',  ( -0.000000000000000000, 1.000000000000000000, -0.000000000000000000 ) ) ;
#629 = CARTESIAN_POINT ( 'NONE',  ( 16.00000000000000000, 5.000000000000000000, 23.25000000000000711 ) ) ;
#630 = FACE_OUTER_BOUND ( 'NONE', #1054, .T. ) ;
#631 = ORIENTED_EDGE ( 'NONE', *, *, #760, .F. ) ;
#632 = DIRECTION ( 'NONE',  ( -0.000000000000000000, 1.000000000000000000, -0.000000000000000000 ) ) ;
#633 = PLANE ( 'NONE',  #869 ) ;
#634 = AXIS2_PLACEMENT_3D ( 'NONE', #1095, #59, #1189 ) ;
#635 = CYLINDRICAL_SURFACE ( 'NONE', #26, 3.249999999999999556 ) ;
#636 = DIRECTION ( 'NONE',  ( 0.000000000000000000, 0.000000000000000000, 1.000000000000000000 ) ) ;
#637 = EDGE_CURVE ( 'NONE', #532, #334, #771, .T. ) ;
#638 = ORIENTED_EDGE ( 'NONE', *, *, #261, .T. ) ;
#639 = FACE_OUTER_BOUND ( 'NONE', #880, .T. ) ;
#640 = FACE_OUTER_BOUND ( 'NONE', #764, .T. ) ;
#641 = CYLINDRICAL_SURFACE ( 'NONE', #243, 1.024999999999994582 ) ;
#642 = ORIENTED_EDGE ( 'NONE', *, *, #948, .T. ) ;
#643 = ORIENTED_EDGE ( 'NONE', *, *, #607, .T. ) ;
#644 = AXIS2_PLACEMENT_3D ( 'NONE', #122, #218, #115 ) ;
#645 = CIRCLE ( 'NONE', #580, 1.024999999999998135 ) ;
#646 = CYLINDRICAL_SURFACE ( 'NONE', #1258, 1.700000000000000178 ) ;
#647 = FACE_OUTER_BOUND ( 'NONE', #1302, .T. ) ;
#648 = CIRCLE ( 'NONE', #172, 1.700000000000000178 ) ;
#649 = FACE_OUTER_BOUND ( 'NONE', #611, .T. ) ;
#650 = CARTESIAN_POINT ( 'NONE',  ( -23.50000000000000000, 8.000000000000000000, 16.97500000000001563 ) ) ;
#651 = ORIENTED_EDGE ( 'NONE', *, *, #844, .T. ) ;
#652 = FACE_BOUND ( 'NONE', #712, .T. ) ;
#653 = CARTESIAN_POINT ( 'NONE',  ( -23.50000000000000000, 8.000000000000001776, 19.02499999999999858 ) ) ;
#654 = AXIS2_PLACEMENT_3D ( 'NONE', #1106, #711, #103 ) ;
#655 = ORIENTED_EDGE ( 'NONE', *, *, #278, .F. ) ;
#656 = AXIS2_PLACEMENT_3D ( 'NONE', #1115, #689, #1205 ) ;
#657 = ADVANCED_FACE ( 'NONE', ( #926 ), #823, .F. ) ;
#658 = DIRECTION ( 'NONE',  ( -0.000000000000000000, 1.000000000000000000, -0.000000000000000000 ) ) ;
#659 = DIRECTION ( 'NONE',  ( 0.000000000000000000, -1.000000000000000000, 0.000000000000000000 ) ) ;
#660 = EDGE_CURVE ( 'NONE', #39, #386, #1283, .T. ) ;
#661 = CIRCLE ( 'NONE', #210, 1.024999999999998135 ) ;
#662 = EDGE_CURVE ( 'NONE', #56, #303, #134, .T. ) ;
#663 = VERTEX_POINT ( 'NONE', #5 ) ;
#664 = AXIS2_PLACEMENT_3D ( 'NONE', #1306, #590, #192 ) ;
#665 = CARTESIAN_POINT ( 'NONE',  ( 17.69999999999999929, 2.000000000000000000, 20.00000000000000711 ) ) ;
#666 = CARTESIAN_POINT ( 'NONE',  ( 16.00000000000000000, 0.000000000000000000, 20.00000000000000711 ) ) ;
#667 = CARTESIAN_POINT ( 'NONE',  ( -32.50000000000000000, 8.000000000000000000, 24.00000000000000711 ) ) ;
#668 = EDGE_CURVE ( 'NONE', #746, #606, #474, .T. ) ;
#669 = ORIENTED_EDGE ( 'NONE', *, *, #144, .F. ) ;
#670 = EDGE_CURVE ( 'NONE', #733, #581, #1148, .T. ) ;
#671 = DIRECTION ( 'NONE',  ( -0.000000000000000000, 1.000000000000000000, -0.000000000000000000 ) ) ;
#672 = CARTESIAN_POINT ( 'NONE',  ( -23.50000000000000000, 1.650000000000001243, 16.97500000000001208 ) ) ;
#673 = VERTEX_POINT ( 'NONE', #1135 ) ;
#674 = ADVANCED_FACE ( 'NONE', ( #531 ), #641, .F. ) ;
#675 = AXIS2_PLACEMENT_3D ( 'NONE', #789, #496, #178 ) ;
#676 = EDGE_LOOP ( 'NONE', ( #1107, #1174, #1264, #1144 ) ) ;
#677 = CARTESIAN_POINT ( 'NONE',  ( 16.00000000000000000, 2.000000000000000000, 20.00000000000000711 ) ) ;
#678 = VERTEX_POINT ( 'NONE', #620 ) ;
#679 = ORIENTED_EDGE ( 'NONE', *, *, #445, .F. ) ;
#680 = PLANE ( 'NONE',  #634 ) ;
#681 = CARTESIAN_POINT ( 'NONE',  ( -16.00000000000000000, 5.000000000000000000, -18.29999999999999005 ) ) ;
#682 = ORIENTED_EDGE ( 'NONE', *, *, #1169, .T. ) ;
#683 = CIRCLE ( 'NONE', #64, 3.249999999999999556 ) ;
#684 = ORIENTED_EDGE ( 'NONE', *, *, #1188, .F. ) ;
#685 = VECTOR ( 'NONE', #393, 1000.000000000000000 ) ;
#686 = ORIENTED_EDGE ( 'NONE', *, *, #660, .T. ) ;
#687 = AXIS2_PLACEMENT_3D ( 'NONE', #347, #1075, #353 ) ;
#688 = DIRECTION ( 'NONE',  ( -0.000000000000000000, 1.000000000000000000, -0.000000000000000000 ) ) ;
#689 = DIRECTION ( 'NONE',  ( 0.000000000000000000, -1.000000000000000000, 0.000000000000000000 ) ) ;
#690 = CYLINDRICAL_SURFACE ( 'NONE', #1139, 1.024999999999994582 ) ;
#691 = ORIENTED_EDGE ( 'NONE', *, *, #758, .T. ) ;
#692 = ORIENTED_EDGE ( 'NONE', *, *, #105, .T. ) ;
#693 = VECTOR ( 'NONE', #736, 1000.000000000000000 ) ;
#694 = EDGE_CURVE ( 'NONE', #366, #1250, #1022, .T. ) ;
#695 = DIRECTION ( 'NONE',  ( 0.000000000000000000, 0.000000000000000000, 1.000000000000000000 ) ) ;
#696 = DIRECTION ( 'NONE',  ( 0.000000000000000000, 0.000000000000000000, 1.000000000000000000 ) ) ;
#697 = AXIS2_PLACEMENT_3D ( 'NONE', #14, #426, #1242 ) ;
#698 = DIRECTION ( 'NONE',  ( 0.000000000000000000, 0.000000000000000000, 1.000000000000000000 ) ) ;
#699 = ORIENTED_EDGE ( 'NONE', *, *, #524, .F. ) ;
#700 = EDGE_CURVE ( 'NONE', #733, #1093, #648, .T. ) ;
#701 = EDGE_LOOP ( 'NONE', ( #1032, #233, #642, #151 ) ) ;
#702 = DIRECTION ( 'NONE',  ( 1.000000000000000000, 0.000000000000000000, 0.000000000000000000 ) ) ;
#703 = FACE_OUTER_BOUND ( 'NONE', #972, .T. ) ;
#704 = LINE ( 'NONE', #1296, #47 ) ;
#705 = ORIENTED_EDGE ( 'NONE', *, *, #939, .F. ) ;
#706 = AXIS2_PLACEMENT_3D ( 'NONE', #1254, #129, #815 ) ;
#707 = ADVANCED_FACE ( 'NONE', ( #225, #434, #842, #27, #1049 ), #917, .F. ) ;
#708 = ORIENTED_EDGE ( 'NONE', *, *, #694, .T. ) ;
#709 = CARTESIAN_POINT ( 'NONE',  ( -21.00000000000000000, 5.000000000000000000, -23.99999999999999289 ) ) ;
#710 = DIRECTION ( 'NONE',  ( 0.000000000000000000, 0.000000000000000000, 1.000000000000000000 ) ) ;
#711 = DIRECTION ( 'NONE',  ( -0.000000000000000000, 1.000000000000000000, -0.000000000000000000 ) ) ;
#712 = EDGE_LOOP ( 'NONE', ( #539, #361 ) ) ;
#713 = EDGE_CURVE ( 'NONE', #509, #266, #754, .T. ) ;
#714 = ADVANCED_FACE ( 'NONE', ( #647 ), #453, .F. ) ;
#715 = DIRECTION ( 'NONE',  ( -0.000000000000000000, -1.000000000000000000, -0.000000000000000000 ) ) ;
#716 = ORIENTED_EDGE ( 'NONE', *, *, #1069, .F. ) ;
#717 = FACE_OUTER_BOUND ( 'NONE', #260, .T. ) ;
#718 = DIRECTION ( 'NONE',  ( -0.000000000000000000, 1.000000000000000000, -0.000000000000000000 ) ) ;
#719 = CYLINDRICAL_SURFACE ( 'NONE', #248, 1.024999999999994582 ) ;
#720 = VERTEX_POINT ( 'NONE', #457 ) ;
#721 = CARTESIAN_POINT ( 'NONE',  ( -16.00000000000000000, 5.000000000000000000, 16.75000000000000355 ) ) ;
#722 = DIRECTION ( 'NONE',  ( 0.000000000000000000, 0.000000000000000000, 1.000000000000000000 ) ) ;
#723 = VERTEX_POINT ( 'NONE', #1281 ) ;
#724 = CARTESIAN_POINT ( 'NONE',  ( -32.50000000000000000, 5.000000000000000000, -23.99999999999999289 ) ) ;
#725 = AXIS2_PLACEMENT_3D ( 'NONE', #534, #632, #838 ) ;
#726 = LINE ( 'NONE', #820, #816 ) ;
#727 = CARTESIAN_POINT ( 'NONE',  ( 16.00000000000000000, 0.000000000000000000, 18.30000000000000782 ) ) ;
#728 = DIRECTION ( 'NONE',  ( 1.000000000000000000, 0.000000000000000000, 0.000000000000000000 ) ) ;
#729 = ORIENTED_EDGE ( 'NONE', *, *, #859, .F. ) ;
#730 = DIRECTION ( 'NONE',  ( 0.000000000000000000, 0.000000000000000000, 1.000000000000000000 ) ) ;
#731 = LINE ( 'NONE', #549, #184 ) ;
#732 = CARTESIAN_POINT ( 'NONE',  ( -23.50000000000000000, 1.650000000000001243, -19.02499999999999503 ) ) ;
#733 = VERTEX_POINT ( 'NONE', #250 ) ;
#734 = DIRECTION ( 'NONE',  ( -0.000000000000000000, 1.000000000000000000, -0.000000000000000000 ) ) ;
#735 = AXIS2_PLACEMENT_3D ( 'NONE', #280, #879, #889 ) ;
#736 = DIRECTION ( 'NONE',  ( -0.000000000000000000, -0.000000000000000000, 1.000000000000000000 ) ) ;
#737 = CARTESIAN_POINT ( 'NONE',  ( 16.00000000000000000, 5.000000000000000000, 20.00000000000000711 ) ) ;
#738 = CARTESIAN_POINT ( 'NONE',  ( 32.49999999999999289, 5.000000000000000000, -23.99999999999999289 ) ) ;
#739 = ORIENTED_EDGE ( 'NONE', *, *, #799, .T. ) ;
#740 = CARTESIAN_POINT ( 'NONE',  ( -32.49999999999999289, 0.000000000000000000, 24.00000000000000711 ) ) ;
#741 = CARTESIAN_POINT ( 'NONE',  ( 11.49999999999999645, 5.000000000000000000, 22.75000000000000711 ) ) ;
#742 = VECTOR ( 'NONE', #584, 1000.000000000000000 ) ;
#743 = CARTESIAN_POINT ( 'NONE',  ( -32.50000000000000000, 0.000000000000000000, -23.99999999999999289 ) ) ;
#744 = CARTESIAN_POINT ( 'NONE',  ( 16.00000000000000000, 5.000000000000000000, 20.00000000000000711 ) ) ;
#745 = CARTESIAN_POINT ( 'NONE',  ( -32.49999999999999289, 0.000000000000000000, 24.00000000000000711 ) ) ;
#746 = VERTEX_POINT ( 'NONE', #1056 ) ;
#747 = DIRECTION ( 'NONE',  ( 0.000000000000000000, 0.000000000000000000, -1.000000000000000000 ) ) ;
#748 = LINE ( 'NONE', #1152, #217 ) ;
#749 = FACE_OUTER_BOUND ( 'NONE', #320, .T. ) ;
#750 = ORIENTED_EDGE ( 'NONE', *, *, #564, .T. ) ;
#751 = CIRCLE ( 'NONE', #979, 1.700000000000000178 ) ;
#752 = LINE ( 'NONE', #42, #204 ) ;
#753 = CARTESIAN_POINT ( 'NONE',  ( 32.49999999999999289, 5.000000000000000000, -23.99999999999999289 ) ) ;
#754 = CIRCLE ( 'NONE', #66, 3.249999999999999556 ) ;
#755 = DIRECTION ( 'NONE',  ( -0.000000000000000000, 1.000000000000000000, -0.000000000000000000 ) ) ;
#756 = EDGE_CURVE ( 'NONE', #1026, #572, #48, .T. ) ;
#757 = VERTEX_POINT ( 'NONE', #753 ) ;
#758 = EDGE_CURVE ( 'NONE', #247, #68, #583, .T. ) ;
#759 = DIRECTION ( 'NONE',  ( 0.000000000000000000, -1.000000000000000000, 0.000000000000000000 ) ) ;
#760 = EDGE_CURVE ( 'NONE', #407, #488, #542, .T. ) ;
#761 =( NAMED_UNIT ( * ) PLANE_ANGLE_UNIT ( ) SI_UNIT ( $, .RADIAN. ) );
#762 = CIRCLE ( 'NONE', #654, 1.024999999999998135 ) ;
#763 = AXIS2_PLACEMENT_3D ( 'NONE', #778, #1181, #1103 ) ;
#764 = EDGE_LOOP ( 'NONE', ( #856, #500, #22, #643 ) ) ;
#765 = CIRCLE ( 'NONE', #933, 3.249999999999999556 ) ;
#766 = FACE_OUTER_BOUND ( 'NONE', #96, .T. ) ;
#767 = CYLINDRICAL_SURFACE ( 'NONE', #871, 1.700000000000000178 ) ;
#768 = FILL_AREA_STYLE ('',( #1263 ) ) ;
#769 = LINE ( 'NONE', #667, #1234 ) ;
#770 = EDGE_LOOP ( 'NONE', ( #1117, #970 ) ) ;
#771 = CIRCLE ( 'NONE', #599, 1.024999999999998135 ) ;
#772 = CIRCLE ( 'NONE', #664, 1.700000000000000178 ) ;
#773 = CARTESIAN_POINT ( 'NONE',  ( -23.50000000000000000, 1.650000000000001243, -7.024999999999989697 ) ) ;
#774 = FACE_OUTER_BOUND ( 'NONE', #45, .T. ) ;
#775 = CARTESIAN_POINT ( 'NONE',  ( -16.00000000000000000, 5.000000000000000000, 20.00000000000000355 ) ) ;
#776 = CARTESIAN_POINT ( 'NONE',  ( 16.00000000000000000, 5.000000000000000000, 20.00000000000000711 ) ) ;
#777 = ORIENTED_EDGE ( 'NONE', *, *, #261, .F. ) ;
#778 = CARTESIAN_POINT ( 'NONE',  ( 16.00000000000000000, 2.000000000000000000, -19.99999999999998934 ) ) ;
#779 = CARTESIAN_POINT ( 'NONE',  ( -32.49999999999999289, 5.000000000000000000, 24.00000000000000711 ) ) ;
#780 = LINE ( 'NONE', #1184, #1027 ) ;
#781 = EDGE_LOOP ( 'NONE', ( #427, #981 ) ) ;
#782 = EDGE_LOOP ( 'NONE', ( #679, #450, #1192, #1143 ) ) ;
#783 = CARTESIAN_POINT ( 'NONE',  ( -23.50000000000000000, 8.000000000000001776, 4.975000000000017408 ) ) ;
#784 = ORIENTED_EDGE ( 'NONE', *, *, #613, .F. ) ;
#785 = EDGE_LOOP ( 'NONE', ( #28, #270 ) ) ;
#786 = VECTOR ( 'NONE', #187, 1000.000000000000000 ) ;
#787 = MANIFOLD_SOLID_BREP ( 'Cut-Extrude1', #43 ) ;
#788 = CIRCLE ( 'NONE', #1277, 1.700000000000000178 ) ;
#789 = CARTESIAN_POINT ( 'NONE',  ( -23.50000000000000000, 1.650000000000001243, 6.000000000000008882 ) ) ;
#790 = CARTESIAN_POINT ( 'NONE',  ( -16.00000000000000000, 2.000000000000000000, -16.74999999999998934 ) ) ;
#791 = DIRECTION ( 'NONE',  ( -0.000000000000000000, 1.000000000000000000, -0.000000000000000000 ) ) ;
#792 = EDGE_LOOP ( 'NONE', ( #1318, #1058 ) ) ;
#793 = EDGE_CURVE ( 'NONE', #1100, #272, #956, .T. ) ;
#794 = ORIENTED_EDGE ( 'NONE', *, *, #232, .T. ) ;
#795 = VECTOR ( 'NONE', #1071, 1000.000000000000000 ) ;
#796 = LINE ( 'NONE', #383, #552 ) ;
#797 = PLANE ( 'NONE',  #656 ) ;
#798 = EDGE_CURVE ( 'NONE', #977, #483, #1092, .T. ) ;
#799 = EDGE_CURVE ( 'NONE', #205, #436, #469, .T. ) ;
#800 = DIRECTION ( 'NONE',  ( -0.000000000000000000, 1.000000000000000000, -0.000000000000000000 ) ) ;
#801 = ORIENTED_EDGE ( 'NONE', *, *, #1083, .F. ) ;
#802 = ORIENTED_EDGE ( 'NONE', *, *, #1274, .F. ) ;
#803 = CIRCLE ( 'NONE', #126, 1.024999999999991251 ) ;
#804 = APPLICATION_PROTOCOL_DEFINITION ( 'draft international standard', 'automotive_design', 1998, #941 ) ;
#805 = DIRECTION ( 'NONE',  ( 1.000000000000000000, 0.000000000000000000, 0.000000000000000000 ) ) ;
#806 = ADVANCED_FACE ( 'NONE', ( #774 ), #32, .F. ) ;
#807 = DIRECTION ( 'NONE',  ( 0.000000000000000000, 0.000000000000000000, 1.000000000000000000 ) ) ;
#808 = VERTEX_POINT ( 'NONE', #653 ) ;
#809 = VERTEX_POINT ( 'NONE', #237 ) ;
#810 = EDGE_CURVE ( 'NONE', #89, #513, #360, .T. ) ;
#811 = CARTESIAN_POINT ( 'NONE',  ( -16.00000000000000000, 5.000000000000000000, 20.00000000000000355 ) ) ;
#812 = EDGE_CURVE ( 'NONE', #308, #303, #748, .T. ) ;
#813 = CARTESIAN_POINT ( 'NONE',  ( -21.00000000000000000, 8.000000000000000000, -23.99999999999999289 ) ) ;
#814 = EDGE_LOOP ( 'NONE', ( #23, #891, #638, #1138 ) ) ;
#815 = DIRECTION ( 'NONE',  ( 0.000000000000000000, 0.000000000000000000, 1.000000000000000000 ) ) ;
#816 = VECTOR ( 'NONE', #609, 1000.000000000000000 ) ;
#817 = VERTEX_POINT ( 'NONE', #783 ) ;
#818 = AXIS2_PLACEMENT_3D ( 'NONE', #147, #671, #860 ) ;
#819 = LINE ( 'NONE', #396, #1000 ) ;
#820 = CARTESIAN_POINT ( 'NONE',  ( -23.50000000000000000, 8.000000000000000000, -16.97500000000000142 ) ) ;
#821 = CARTESIAN_POINT ( 'NONE',  ( -23.50000000000000000, 8.000000000000001776, 6.000000000000008882 ) ) ;
#822 = ORIENTED_EDGE ( 'NONE', *, *, #798, .F. ) ;
#823 = CYLINDRICAL_SURFACE ( 'NONE', #540, 3.249999999999999556 ) ;
#824 = DIRECTION ( 'NONE',  ( -0.000000000000000000, 1.000000000000000000, -0.000000000000000000 ) ) ;
#825 = VERTEX_POINT ( 'NONE', #173 ) ;
#826 = PRODUCT_DEFINITION_CONTEXT ( 'detailed design', #941, 'design' ) ;
#827 = AXIS2_PLACEMENT_3D ( 'NONE', #1042, #302, #194 ) ;
#828 = FACE_OUTER_BOUND ( 'NONE', #400, .T. ) ;
#829 = ADVANCED_BREP_SHAPE_REPRESENTATION ( 'W1-LC-03_Baseplate_RevA', ( #787, #182 ), #1186 ) ;
#830 = DIRECTION ( 'NONE',  ( 0.000000000000000000, 0.000000000000000000, 1.000000000000000000 ) ) ;
#831 = ORIENTED_EDGE ( 'NONE', *, *, #477, .T. ) ;
#832 = CIRCLE ( 'NONE', #83, 1.024999999999991251 ) ;
#833 = DIRECTION ( 'NONE',  ( 0.000000000000000000, 0.000000000000000000, 1.000000000000000000 ) ) ;
#834 = FACE_BOUND ( 'NONE', #125, .T. ) ;
#835 = CARTESIAN_POINT ( 'NONE',  ( -20.99999999999999645, 8.000000000000000000, 24.00000000000000711 ) ) ;
#836 = EDGE_CURVE ( 'NONE', #532, #367, #780, .T. ) ;
#837 = EDGE_LOOP ( 'NONE', ( #432, #631, #166, #1215 ) ) ;
#838 = DIRECTION ( 'NONE',  ( 0.000000000000000000, 0.000000000000000000, 1.000000000000000000 ) ) ;
#839 = AXIS2_PLACEMENT_3D ( 'NONE', #811, #1224, #86 ) ;
#840 = DIRECTION ( 'NONE',  ( 0.000000000000000000, 0.000000000000000000, 1.000000000000000000 ) ) ;
#841 = ORIENTED_EDGE ( 'NONE', *, *, #1073, .T. ) ;
#842 = FACE_BOUND ( 'NONE', #545, .T. ) ;
#843 = CARTESIAN_POINT ( 'NONE',  ( -23.50000000000000000, 8.000000000000000000, 6.000000000000008882 ) ) ;
#844 = EDGE_CURVE ( 'NONE', #572, #673, #597, .T. ) ;
#845 = EDGE_LOOP ( 'NONE', ( #619, #913, #476, #1158 ) ) ;
#846 = LINE ( 'NONE', #1251, #433 ) ;
#847 = DIRECTION ( 'NONE',  ( 0.000000000000000000, -1.000000000000000000, 0.000000000000000000 ) ) ;
#848 = DIRECTION ( 'NONE',  ( 0.000000000000000000, 0.000000000000000000, 1.000000000000000000 ) ) ;
#849 = CARTESIAN_POINT ( 'NONE',  ( 16.00000000000000000, 5.000000000000000000, -23.24999999999998934 ) ) ;
#850 = CARTESIAN_POINT ( 'NONE',  ( -16.00000000000000000, 2.000000000000000000, -19.99999999999998934 ) ) ;
#851 = ORIENTED_EDGE ( 'NONE', *, *, #471, .T. ) ;
#852 = DIRECTION ( 'NONE',  ( 0.000000000000000000, 0.000000000000000000, 1.000000000000000000 ) ) ;
#853 = EDGE_CURVE ( 'NONE', #366, #757, #377, .T. ) ;
#854 = CARTESIAN_POINT ( 'NONE',  ( -23.50000000000000000, 8.000000000000000000, 7.025000000000003908 ) ) ;
#855 = ORIENTED_EDGE ( 'NONE', *, *, #1222, .F. ) ;
#856 = ORIENTED_EDGE ( 'NONE', *, *, #1170, .F. ) ;
#857 = EDGE_CURVE ( 'NONE', #266, #606, #1191, .T. ) ;
#858 = DIRECTION ( 'NONE',  ( -0.000000000000000000, -0.000000000000000000, 1.000000000000000000 ) ) ;
#859 = EDGE_CURVE ( 'NONE', #509, #746, #188, .T. ) ;
#860 = DIRECTION ( 'NONE',  ( 0.000000000000000000, 0.000000000000000000, 1.000000000000000000 ) ) ;
#861 = EDGE_LOOP ( 'NONE', ( #876, #905 ) ) ;
#862 = FACE_OUTER_BOUND ( 'NONE', #227, .T. ) ;
#863 = AXIS2_PLACEMENT_3D ( 'NONE', #1301, #791, #480 ) ;
#864 = AXIS2_PLACEMENT_3D ( 'NONE', #666, #159, #257 ) ;
#865 = EDGE_LOOP ( 'NONE', ( #465, #1094, #216, #1261 ) ) ;
#866 = DIRECTION ( 'NONE',  ( -2.891205793294678326E-16, -0.000000000000000000, -1.000000000000000000 ) ) ;
#867 = PRESENTATION_STYLE_ASSIGNMENT (( #1066 ) ) ;
#868 = DIRECTION ( 'NONE',  ( -0.000000000000000000, 1.000000000000000000, -0.000000000000000000 ) ) ;
#869 = AXIS2_PLACEMENT_3D ( 'NONE', #25, #847, #49 ) ;
#870 = ORIENTED_EDGE ( 'NONE', *, *, #760, .T. ) ;
#871 = AXIS2_PLACEMENT_3D ( 'NONE', #158, #101, #410 ) ;
#872 = LINE ( 'NONE', #1275, #1311 ) ;
#873 = DIRECTION ( 'NONE',  ( 0.000000000000000000, 0.000000000000000000, 1.000000000000000000 ) ) ;
#874 = FACE_OUTER_BOUND ( 'NONE', #782, .T. ) ;
#875 = ORIENTED_EDGE ( 'NONE', *, *, #700, .F. ) ;
#876 = ORIENTED_EDGE ( 'NONE', *, *, #713, .T. ) ;
#877 = VECTOR ( 'NONE', #728, 1000.000000000000000 ) ;
#878 = DIRECTION ( 'NONE',  ( 0.000000000000000000, 0.000000000000000000, 1.000000000000000000 ) ) ;
#879 = DIRECTION ( 'NONE',  ( -0.000000000000000000, 1.000000000000000000, -0.000000000000000000 ) ) ;
#880 = EDGE_LOOP ( 'NONE', ( #851, #890, #716, #286 ) ) ;
#881 = ORIENTED_EDGE ( 'NONE', *, *, #1182, .F. ) ;
#882 =( NAMED_UNIT ( * ) PLANE_ANGLE_UNIT ( ) SI_UNIT ( $, .RADIAN. ) );
#883 = LINE ( 'NONE', #1206, #1091 ) ;
#884 = VERTEX_POINT ( 'NONE', #585 ) ;
#885 = ORIENTED_EDGE ( 'NONE', *, *, #98, .F. ) ;
#886 = AXIS2_PLACEMENT_3D ( 'NONE', #391, #267, #1175 ) ;
#887 = AXIS2_PLACEMENT_3D ( 'NONE', #1197, #179, #503 ) ;
#888 = EDGE_CURVE ( 'NONE', #673, #906, #458, .T. ) ;
#889 = DIRECTION ( 'NONE',  ( 0.000000000000000000, 0.000000000000000000, 1.000000000000000000 ) ) ;
#890 = ORIENTED_EDGE ( 'NONE', *, *, #1127, .F. ) ;
#891 = ORIENTED_EDGE ( 'NONE', *, *, #1253, .T. ) ;
#892 = AXIS2_PLACEMENT_3D ( 'NONE', #908, #602, #1005 ) ;
#893 = ORIENTED_EDGE ( 'NONE', *, *, #464, .T. ) ;
#894 = EDGE_CURVE ( 'NONE', #1080, #1250, #494, .T. ) ;
#895 = DIRECTION ( 'NONE',  ( -0.000000000000000000, 1.000000000000000000, -0.000000000000000000 ) ) ;
#896 = CARTESIAN_POINT ( 'NONE',  ( 16.00000000000000000, 5.000000000000000000, -16.74999999999998934 ) ) ;
#897 = LINE ( 'NONE', #487, #562 ) ;
#898 = ORIENTED_EDGE ( 'NONE', *, *, #244, .T. ) ;
#899 = VECTOR ( 'NONE', #904, 1000.000000000000000 ) ;
#900 = EDGE_CURVE ( 'NONE', #515, #308, #624, .T. ) ;
#901 = CARTESIAN_POINT ( 'NONE',  ( -21.00000000000000000, 8.000000000000000000, -23.99999999999999289 ) ) ;
#902 = CARTESIAN_POINT ( 'NONE',  ( 16.00000000000000000, 2.000000000000000000, 16.75000000000000711 ) ) ;
#903 = CARTESIAN_POINT ( 'NONE',  ( -23.50000000000000000, 8.000000000000000000, -5.999999999999991118 ) ) ;
#904 = DIRECTION ( 'NONE',  ( -0.000000000000000000, 1.000000000000000000, -0.000000000000000000 ) ) ;
#905 = ORIENTED_EDGE ( 'NONE', *, *, #424, .T. ) ;
#906 = VERTEX_POINT ( 'NONE', #88 ) ;
#907 = CIRCLE ( 'NONE', #1292, 1.700000000000000178 ) ;
#908 = CARTESIAN_POINT ( 'NONE',  ( -16.00000000000000000, 5.000000000000000000, 20.00000000000000355 ) ) ;
#909 = DIRECTION ( 'NONE',  ( 0.000000000000000000, 0.000000000000000000, 1.000000000000000000 ) ) ;
#910 = DIRECTION ( 'NONE',  ( -1.000000000000000000, 0.000000000000000000, -0.000000000000000000 ) ) ;
#911 = ORIENTED_EDGE ( 'NONE', *, *, #1088, .F. ) ;
#912 = FACE_OUTER_BOUND ( 'NONE', #265, .T. ) ;
#913 = ORIENTED_EDGE ( 'NONE', *, *, #578, .F. ) ;
#914 = CARTESIAN_POINT ( 'NONE',  ( -23.50000000000000000, 8.000000000000001776, 18.00000000000001066 ) ) ;
#915 = CARTESIAN_POINT ( 'NONE',  ( -16.00000000000000000, 5.000000000000000000, 21.70000000000000284 ) ) ;
#916 = EDGE_LOOP ( 'NONE', ( #1128, #12, #423, #197 ) ) ;
#917 = PLANE ( 'NONE',  #460 ) ;
#918 = CIRCLE ( 'NONE', #1087, 1.700000000000000178 ) ;
#919 = ORIENTED_EDGE ( 'NONE', *, *, #1237, .F. ) ;
#920 = CIRCLE ( 'NONE', #863, 1.700000000000000178 ) ;
#921 = VECTOR ( 'NONE', #246, 1000.000000000000000 ) ;
#922 = DIRECTION ( 'NONE',  ( -0.000000000000000000, 1.000000000000000000, -0.000000000000000000 ) ) ;
#923 = CARTESIAN_POINT ( 'NONE',  ( -16.00000000000000000, 2.000000000000000000, 20.00000000000000355 ) ) ;
#924 = DIRECTION ( 'NONE',  ( 0.000000000000000000, -1.000000000000000000, 0.000000000000000000 ) ) ;
#925 = EDGE_LOOP ( 'NONE', ( #3, #502, #841, #169 ) ) ;
#926 = FACE_OUTER_BOUND ( 'NONE', #925, .T. ) ;
#927 = CYLINDRICAL_SURFACE ( 'NONE', #697, 3.249999999999999556 ) ;
#928 = ORIENTED_EDGE ( 'NONE', *, *, #467, .F. ) ;
#929 = PLANE ( 'NONE',  #381 ) ;
#930 = VECTOR ( 'NONE', #895, 1000.000000000000000 ) ;
#931 = DIRECTION ( 'NONE',  ( 0.000000000000000000, 0.000000000000000000, 1.000000000000000000 ) ) ;
#932 = ORIENTED_EDGE ( 'NONE', *, *, #793, .T. ) ;
#933 = AXIS2_PLACEMENT_3D ( 'NONE', #348, #755, #1157 ) ;
#934 = ADVANCED_FACE ( 'NONE', ( #72 ), #690, .F. ) ;
#935 = CARTESIAN_POINT ( 'NONE',  ( 32.50000000000000711, 5.000000000000000000, 24.00000000000000711 ) ) ;
#936 = DIRECTION ( 'NONE',  ( 0.000000000000000000, 0.000000000000000000, 1.000000000000000000 ) ) ;
#937 = ORIENTED_EDGE ( 'NONE', *, *, #637, .F. ) ;
#939 = EDGE_CURVE ( 'NONE', #372, #825, #897, .T. ) ;
#938 = CARTESIAN_POINT ( 'NONE',  ( -23.50000000000000000, 1.650000000000001243, -16.97499999999999787 ) ) ;
#940 = EDGE_CURVE ( 'NONE', #334, #532, #114, .T. ) ;
#941 = APPLICATION_CONTEXT ( 'automotive_design' ) ;
#942 = PLANE ( 'NONE',  #1059 ) ;
#943 = CARTESIAN_POINT ( 'NONE',  ( 16.00000000000000000, 5.000000000000000000, -18.29999999999999005 ) ) ;
#944 = VERTEX_POINT ( 'NONE', #168 ) ;
#945 = CARTESIAN_POINT ( 'NONE',  ( -16.00000000000000000, 2.000000000000000000, 23.25000000000000355 ) ) ;
#946 = AXIS2_PLACEMENT_3D ( 'NONE', #776, #1043, #422 ) ;
#947 = ORIENTED_EDGE ( 'NONE', *, *, #993, .T. ) ;
#948 = EDGE_CURVE ( 'NONE', #160, #809, #1097, .T. ) ;
#949 = PLANE ( 'NONE',  #1009 ) ;
#950 = ORIENTED_EDGE ( 'NONE', *, *, #570, .T. ) ;
#951 = CARTESIAN_POINT ( 'NONE',  ( -32.50000000000000000, 0.000000000000000000, -23.99999999999999289 ) ) ;
#952 = EDGE_LOOP ( 'NONE', ( #1098, #582, #521, #475 ) ) ;
#953 = ADVANCED_FACE ( 'NONE', ( #370 ), #398, .F. ) ;
#954 = EDGE_CURVE ( 'NONE', #757, #327, #704, .T. ) ;
#955 = FACE_OUTER_BOUND ( 'NONE', #960, .T. ) ;
#956 = LINE ( 'NONE', #854, #921 ) ;
#957 = CARTESIAN_POINT ( 'NONE',  ( -23.50000000000000000, 8.000000000000001776, -5.999999999999991118 ) ) ;
#958 = CARTESIAN_POINT ( 'NONE',  ( -11.50000000000000000, 0.000000000000000000, 24.00000000000000711 ) ) ;
#959 = PRODUCT_RELATED_PRODUCT_CATEGORY ( 'part', '', ( #91 ) ) ;
#960 = EDGE_LOOP ( 'NONE', ( #254, #855, #705, #142 ) ) ;
#961 = DIRECTION ( 'NONE',  ( 0.000000000000000000, 1.000000000000000000, 0.000000000000000000 ) ) ;
#962 = AXIS2_PLACEMENT_3D ( 'NONE', #439, #228, #330 ) ;
#963 = DIRECTION ( 'NONE',  ( 0.000000000000000000, 0.000000000000000000, -1.000000000000000000 ) ) ;
#964 = AXIS2_PLACEMENT_3D ( 'NONE', #219, #416, #306 ) ;
#965 = ORIENTED_EDGE ( 'NONE', *, *, #429, .F. ) ;
#966 = CYLINDRICAL_SURFACE ( 'NONE', #374, 3.249999999999999556 ) ;
#967 = DIRECTION ( 'NONE',  ( 0.000000000000000000, 0.000000000000000000, -1.000000000000000000 ) ) ;
#968 = VECTOR ( 'NONE', #290, 1000.000000000000000 ) ;
#969 = CARTESIAN_POINT ( 'NONE',  ( -32.49999999999999289, 5.000000000000000000, 24.00000000000000711 ) ) ;
#970 = ORIENTED_EDGE ( 'NONE', *, *, #380, .F. ) ;
#971 = DIRECTION ( 'NONE',  ( -0.000000000000000000, -1.000000000000000000, -0.000000000000000000 ) ) ;
#972 = EDGE_LOOP ( 'NONE', ( #52, #1179, #202, #350 ) ) ;
#973 = ORIENTED_EDGE ( 'NONE', *, *, #1004, .F. ) ;
#974 = FACE_OUTER_BOUND ( 'NONE', #1240, .T. ) ;
#975 = CARTESIAN_POINT ( 'NONE',  ( 16.00000000000000000, 2.000000000000000000, 20.00000000000000711 ) ) ;
#976 = DIRECTION ( 'NONE',  ( 0.000000000000000000, -0.000000000000000000, -1.000000000000000000 ) ) ;
#977 = VERTEX_POINT ( 'NONE', #60 ) ;
#978 = CARTESIAN_POINT ( 'NONE',  ( -32.50000000000000000, 5.000000000000000000, -23.99999999999999289 ) ) ;
#979 = AXIS2_PLACEMENT_3D ( 'NONE', #511, #718, #909 ) ;
#980 = DIRECTION ( 'NONE',  ( -0.000000000000000000, 1.000000000000000000, -0.000000000000000000 ) ) ;
#981 = ORIENTED_EDGE ( 'NONE', *, *, #1073, .F. ) ;
#982 = COLOUR_RGB ( '',0.7921568627450980005, 0.8196078431372548767, 0.9333333333333333481 ) ;
#983 = EDGE_LOOP ( 'NONE', ( #394, #1014 ) ) ;
#984 = ORIENTED_EDGE ( 'NONE', *, *, #482, .F. ) ;
#985 = EDGE_CURVE ( 'NONE', #242, #581, #920, .T. ) ;
#986 = EDGE_CURVE ( 'NONE', #825, #213, #883, .T. ) ;
#987 = APPLICATION_PROTOCOL_DEFINITION ( 'draft international standard', 'automotive_design', 1998, #1210 ) ;
#988 = DIRECTION ( 'NONE',  ( -0.000000000000000000, 1.000000000000000000, -0.000000000000000000 ) ) ;
#989 = VERTEX_POINT ( 'NONE', #1288 ) ;
#990 = CIRCLE ( 'NONE', #355, 3.249999999999999556 ) ;
#991 = EDGE_CURVE ( 'NONE', #572, #1026, #284, .T. ) ;
#992 = ORIENTED_EDGE ( 'NONE', *, *, #1303, .F. ) ;
#993 = EDGE_CURVE ( 'NONE', #1257, #663, #762, .T. ) ;
#994 = DIRECTION ( 'NONE',  ( 0.000000000000000000, 0.000000000000000000, 1.000000000000000000 ) ) ;
#995 = PLANE ( 'NONE',  #1173 ) ;
#996 = DIRECTION ( 'NONE',  ( -0.000000000000000000, 1.000000000000000000, -0.000000000000000000 ) ) ;
#997 = VECTOR ( 'NONE', #1040, 1000.000000000000000 ) ;
#998 = DIRECTION ( 'NONE',  ( 0.000000000000000000, 0.000000000000000000, 1.000000000000000000 ) ) ;
#999 = AXIS2_PLACEMENT_3D ( 'NONE', #1013, #431, #1015 ) ;
#1000 = VECTOR ( 'NONE', #199, 1000.000000000000000 ) ;
#1001 = DIRECTION ( 'NONE',  ( 0.000000000000000000, 0.000000000000000000, 1.000000000000000000 ) ) ;
#1002 = ORIENTED_EDGE ( 'NONE', *, *, #445, .T. ) ;
#1003 = ORIENTED_EDGE ( 'NONE', *, *, #143, .T. ) ;
#1004 = EDGE_CURVE ( 'NONE', #272, #817, #588, .T. ) ;
#1005 = DIRECTION ( 'NONE',  ( 0.000000000000000000, 0.000000000000000000, 1.000000000000000000 ) ) ;
#1006 = FACE_OUTER_BOUND ( 'NONE', #861, .T. ) ;
#1007 = ORIENTED_EDGE ( 'NONE', *, *, #756, .F. ) ;
#1008 = ORIENTED_EDGE ( 'NONE', *, *, #524, .T. ) ;
#1009 = AXIS2_PLACEMENT_3D ( 'NONE', #1060, #961, #455 ) ;
#1010 = FACE_OUTER_BOUND ( 'NONE', #121, .T. ) ;
#1011 = CARTESIAN_POINT ( 'NONE',  ( -21.00000000000000000, 5.000000000000000000, -23.99999999999999289 ) ) ;
#1012 = CARTESIAN_POINT ( 'NONE',  ( 16.00000000000000000, 0.000000000000000000, -21.69999999999998863 ) ) ;
#1013 = CARTESIAN_POINT ( 'NONE',  ( -16.00000000000000000, 0.000000000000000000, -19.99999999999998934 ) ) ;
#1014 = ORIENTED_EDGE ( 'NONE', *, *, #756, .T. ) ;
#1015 = DIRECTION ( 'NONE',  ( 0.000000000000000000, 0.000000000000000000, 1.000000000000000000 ) ) ;
#1016 = VERTEX_POINT ( 'NONE', #1239 ) ;
#1017 = CARTESIAN_POINT ( 'NONE',  ( -23.50000000000000000, 8.000000000000001776, 6.000000000000008882 ) ) ;
#1018 = CARTESIAN_POINT ( 'NONE',  ( -16.00000000000000000, 5.000000000000000000, 20.00000000000000355 ) ) ;
#1019 = LINE ( 'NONE', #813, #529 ) ;
#1020 = ORIENTED_EDGE ( 'NONE', *, *, #1069, .T. ) ;
#1021 = EDGE_CURVE ( 'NONE', #1100, #183, #1232, .T. ) ;
#1022 = LINE ( 'NONE', #935, #1202 ) ;
#1023 = CARTESIAN_POINT ( 'NONE',  ( -16.00000000000000000, 0.000000000000000000, 21.70000000000000284 ) ) ;
#1024 = CARTESIAN_POINT ( 'NONE',  ( -16.00000000000000000, 5.000000000000000000, -16.74999999999998934 ) ) ;
#1025 = VECTOR ( 'NONE', #1243, 1000.000000000000000 ) ;
#1026 = VERTEX_POINT ( 'NONE', #727 ) ;
#1027 = VECTOR ( 'NONE', #592, 1000.000000000000000 ) ;
#1028 = VECTOR ( 'NONE', #1161, 1000.000000000000000 ) ;
#1029 = ADVANCED_FACE ( 'NONE', ( #440 ), #322, .F. ) ;
#1030 = PLANE ( 'NONE',  #962 ) ;
#1031 = FACE_OUTER_BOUND ( 'NONE', #104, .T. ) ;
#1032 = ORIENTED_EDGE ( 'NONE', *, *, #799, .F. ) ;
#1033 = DIRECTION ( 'NONE',  ( 0.000000000000000000, 0.000000000000000000, 1.000000000000000000 ) ) ;
#1034 = FACE_BOUND ( 'NONE', #378, .T. ) ;
#1035 = CARTESIAN_POINT ( 'NONE',  ( -23.50000000000000000, 1.650000000000001243, 19.02500000000000568 ) ) ;
#1036 = ADVANCED_FACE ( 'NONE', ( #208 ), #942, .F. ) ;
#1037 = EDGE_CURVE ( 'NONE', #663, #678, #19, .T. ) ;
#1038 = ORIENTED_EDGE ( 'NONE', *, *, #853, .T. ) ;
#1039 = VECTOR ( 'NONE', #604, 1000.000000000000000 ) ;
#1040 = DIRECTION ( 'NONE',  ( -0.000000000000000000, -1.000000000000000000, -0.000000000000000000 ) ) ;
#1041 = AXIS2_PLACEMENT_3D ( 'NONE', #1055, #547, #747 ) ;
#1042 = CARTESIAN_POINT ( 'NONE',  ( -23.50000000000000000, 8.000000000000001776, 18.00000000000001066 ) ) ;
#1043 = DIRECTION ( 'NONE',  ( -0.000000000000000000, 1.000000000000000000, -0.000000000000000000 ) ) ;
#1044 = CARTESIAN_POINT ( 'NONE',  ( -23.50000000000000000, 1.650000000000001243, -5.999999999999991118 ) ) ;
#1045 = FACE_BOUND ( 'NONE', #770, .T. ) ;
#1046 = EDGE_CURVE ( 'NONE', #808, #444, #485, .T. ) ;
#1047 = ORIENTED_EDGE ( 'NONE', *, *, #41, .F. ) ;
#1048 = CARTESIAN_POINT ( 'NONE',  ( -16.00000000000000000, 5.000000000000000000, -19.99999999999998934 ) ) ;
#1049 = FACE_OUTER_BOUND ( 'NONE', #329, .T. ) ;
#1050 = ORIENTED_EDGE ( 'NONE', *, *, #1085, .F. ) ;
#1051 = EDGE_CURVE ( 'NONE', #615, #366, #2, .T. ) ;
#1052 = ADVANCED_FACE ( 'NONE', ( #1031 ), #719, .F. ) ;
#1053 = AXIS2_PLACEMENT_3D ( 'NONE', #737, #1125, #730 ) ;
#1054 = EDGE_LOOP ( 'NONE', ( #1164, #69, #621, #299 ) ) ;
#1055 = CARTESIAN_POINT ( 'NONE',  ( 11.49999999999999645, 5.000000000000000000, 22.75000000000000711 ) ) ;
#1056 = CARTESIAN_POINT ( 'NONE',  ( -16.00000000000000000, 5.000000000000000000, 23.25000000000000355 ) ) ;
#1057 = CARTESIAN_POINT ( 'NONE',  ( -32.50000000000000000, 0.000000000000000000, -23.99999999999999289 ) ) ;
#1058 = ORIENTED_EDGE ( 'NONE', *, *, #467, .T. ) ;
#1059 = AXIS2_PLACEMENT_3D ( 'NONE', #1219, #910, #1112 ) ;
#1060 = CARTESIAN_POINT ( 'NONE',  ( 0.000000000000000000, 5.000000000000000000, 0.000000000000000000 ) ) ;
#1061 = CIRCLE ( 'NONE', #887, 1.700000000000000178 ) ;
#1062 = CARTESIAN_POINT ( 'NONE',  ( 16.00000000000000000, 5.000000000000000000, -19.99999999999998934 ) ) ;
#1063 = ORIENTED_EDGE ( 'NONE', *, *, #6, .T. ) ;
#1064 = CARTESIAN_POINT ( 'NONE',  ( -23.50000000000000000, 8.000000000000001776, -17.99999999999999645 ) ) ;
#1065 = AXIS2_PLACEMENT_3D ( 'NONE', #309, #1140, #1129 ) ;
#1066 = SURFACE_STYLE_USAGE ( .BOTH. , #566 ) ;
#1067 = CIRCLE ( 'NONE', #964, 3.249999999999999556 ) ;
#1068 = EDGE_LOOP ( 'NONE', ( #175, #822 ) ) ;
#1069 = EDGE_CURVE ( 'NONE', #30, #1316, #1019, .T. ) ;
#1070 = DIRECTION ( 'NONE',  ( -0.000000000000000000, 1.000000000000000000, -0.000000000000000000 ) ) ;
#1071 = DIRECTION ( 'NONE',  ( -0.000000000000000000, -1.000000000000000000, -0.000000000000000000 ) ) ;
#1072 = ORIENTED_EDGE ( 'NONE', *, *, #985, .T. ) ;
#1073 = EDGE_CURVE ( 'NONE', #68, #247, #990, .T. ) ;
#1074 =( NAMED_UNIT ( * ) SI_UNIT ( $, .STERADIAN. ) SOLID_ANGLE_UNIT ( ) );
#1075 = DIRECTION ( 'NONE',  ( -0.000000000000000000, 1.000000000000000000, -0.000000000000000000 ) ) ;
#1076 = FACE_OUTER_BOUND ( 'NONE', #785, .T. ) ;
#1077 = AXIS2_PLACEMENT_3D ( 'NONE', #461, #1156, #157 ) ;
#1078 = ORIENTED_EDGE ( 'NONE', *, *, #948, .F. ) ;
#1079 = ADVANCED_FACE ( 'NONE', ( #1116, #1006 ), #201, .F. ) ;
#1080 = VERTEX_POINT ( 'NONE', #95 ) ;
#1081 = FACE_BOUND ( 'NONE', #569, .T. ) ;
#1082 = CARTESIAN_POINT ( 'NONE',  ( -32.49999999999999289, 0.000000000000000000, 24.00000000000000711 ) ) ;
#1083 = EDGE_CURVE ( 'NONE', #39, #1114, #311, .T. ) ;
#1084 = EDGE_LOOP ( 'NONE', ( #1227, #682, #1072, #1282 ) ) ;
#1085 = EDGE_CURVE ( 'NONE', #213, #73, #535, .T. ) ;
#1086 = DIRECTION ( 'NONE',  ( -0.000000000000000000, 1.000000000000000000, -0.000000000000000000 ) ) ;
#1087 = AXIS2_PLACEMENT_3D ( 'NONE', #850, #1256, #544 ) ;
#1088 = EDGE_CURVE ( 'NONE', #944, #89, #625, .T. ) ;
#1089 = CARTESIAN_POINT ( 'NONE',  ( -16.00000000000000000, 5.000000000000000000, 23.25000000000000355 ) ) ;
#1090 = VERTEX_POINT ( 'NONE', #610 ) ;
#1091 = VECTOR ( 'NONE', #473, 1000.000000000000000 ) ;
#1092 = CIRCLE ( 'NONE', #687, 3.249999999999999556 ) ;
#1093 = VERTEX_POINT ( 'NONE', #1012 ) ;
#1094 = ORIENTED_EDGE ( 'NONE', *, *, #318, .F. ) ;
#1095 = CARTESIAN_POINT ( 'NONE',  ( -14.30000000000000071, 2.000000000000000000, -19.99999999999998934 ) ) ;
#1096 = CARTESIAN_POINT ( 'NONE',  ( -11.50000000000000000, 5.000000000000000000, 22.75000000000000711 ) ) ;
#1097 = LINE ( 'NONE', #681, #899 ) ;
#1098 = ORIENTED_EDGE ( 'NONE', *, *, #993, .F. ) ;
#1099 = AXIS2_PLACEMENT_3D ( 'NONE', #1252, #120, #215 ) ;
#1100 = VERTEX_POINT ( 'NONE', #512 ) ;
#1101 = PRODUCT_DEFINITION_FORMATION_WITH_SPECIFIED_SOURCE ( 'ANY', '', #91, .NOT_KNOWN. ) ;
#1102 = AXIS2_PLACEMENT_3D ( 'NONE', #779, #967, #50 ) ;
#1103 = DIRECTION ( 'NONE',  ( 0.000000000000000000, 0.000000000000000000, 1.000000000000000000 ) ) ;
#1104 = LINE ( 'NONE', #1313, #786 ) ;
#1105 = ADVANCED_FACE ( 'NONE', ( #1141, #224 ), #633, .F. ) ;
#1106 = CARTESIAN_POINT ( 'NONE',  ( -23.50000000000000000, 1.650000000000001243, -5.999999999999991118 ) ) ;
#1107 = ORIENTED_EDGE ( 'NONE', *, *, #371, .F. ) ;
#1108 = EDGE_LOOP ( 'NONE', ( #287, #90, #684, #255, #335, #489 ) ) ;
#1109 = CARTESIAN_POINT ( 'NONE',  ( -16.00000000000000000, 0.000000000000000000, -21.69999999999998863 ) ) ;
#1110 = CIRCLE ( 'NONE', #437, 3.249999999999999556 ) ;
#1111 = CARTESIAN_POINT ( 'NONE',  ( -16.00000000000000000, 5.000000000000000000, 18.30000000000000426 ) ) ;
#1112 = DIRECTION ( 'NONE',  ( -0.000000000000000000, 0.000000000000000000, 1.000000000000000000 ) ) ;
#1113 = EDGE_LOOP ( 'NONE', ( #379, #167 ) ) ;
#1114 = VERTEX_POINT ( 'NONE', #1151 ) ;
#1115 = CARTESIAN_POINT ( 'NONE',  ( -23.50000000000000000, 1.650000000000000799, 6.000000000000008882 ) ) ;
#1116 = FACE_BOUND ( 'NONE', #189, .T. ) ;
#1117 = ORIENTED_EDGE ( 'NONE', *, *, #1046, .F. ) ;
#1118 = DIRECTION ( 'NONE',  ( 0.000000000000000000, 0.000000000000000000, 1.000000000000000000 ) ) ;
#1119 = EDGE_LOOP ( 'NONE', ( #343, #875, #20, #354 ) ) ;
#1120 = AXIS2_PLACEMENT_3D ( 'NONE', #479, #688, #695 ) ;
#1121 = CARTESIAN_POINT ( 'NONE',  ( -16.00000000000000000, 2.000000000000000000, 16.75000000000000355 ) ) ;
#1122 = LINE ( 'NONE', #1111, #1265 ) ;
#1123 = DIRECTION ( 'NONE',  ( 0.000000000000000000, 0.000000000000000000, 1.000000000000000000 ) ) ;
#1124 = ORIENTED_EDGE ( 'NONE', *, *, #812, .T. ) ;
#1125 = DIRECTION ( 'NONE',  ( -0.000000000000000000, 1.000000000000000000, -0.000000000000000000 ) ) ;
#1126 = DIRECTION ( 'NONE',  ( 2.891205793294678326E-16, 0.000000000000000000, 1.000000000000000000 ) ) ;
#1127 = EDGE_CURVE ( 'NONE', #1316, #327, #752, .T. ) ;
#1128 = ORIENTED_EDGE ( 'NONE', *, *, #836, .F. ) ;
#1129 = DIRECTION ( 'NONE',  ( 0.000000000000000000, 0.000000000000000000, 1.000000000000000000 ) ) ;
#1130 = CARTESIAN_POINT ( 'NONE',  ( -16.00000000000000000, 2.000000000000000000, -21.69999999999998863 ) ) ;
#1131 = CARTESIAN_POINT ( 'NONE',  ( -11.50000000000000000, 5.000000000000000000, 22.75000000000000711 ) ) ;
#1132 = ORIENTED_EDGE ( 'NONE', *, *, #504, .F. ) ;
#1133 = ADVANCED_FACE ( 'NONE', ( #559 ), #1280, .F. ) ;
#1134 = ADVANCED_FACE ( 'NONE', ( #955 ), #338, .F. ) ;
#1135 = CARTESIAN_POINT ( 'NONE',  ( 16.00000000000000000, 2.000000000000000000, 21.70000000000000639 ) ) ;
#1136 = ORIENTED_EDGE ( 'NONE', *, *, #1222, .T. ) ;
#1137 = LINE ( 'NONE', #951, #1220 ) ;
#1138 = ORIENTED_EDGE ( 'NONE', *, *, #793, .F. ) ;
#1139 = AXIS2_PLACEMENT_3D ( 'NONE', #1199, #499, #164 ) ;
#1140 = DIRECTION ( 'NONE',  ( -0.000000000000000000, 1.000000000000000000, -0.000000000000000000 ) ) ;
#1141 = FACE_BOUND ( 'NONE', #626, .T. ) ;
#1142 = CARTESIAN_POINT ( 'NONE',  ( -23.50000000000000000, 8.000000000000000000, -5.999999999999991118 ) ) ;
#1143 = ORIENTED_EDGE ( 'NONE', *, *, #376, .T. ) ;
#1144 = ORIENTED_EDGE ( 'NONE', *, *, #1276, .F. ) ;
#1145 = LINE ( 'NONE', #740, #595 ) ;
#1146 = VECTOR ( 'NONE', #658, 1000.000000000000000 ) ;
#1147 = FACE_BOUND ( 'NONE', #781, .T. ) ;
#1148 = LINE ( 'NONE', #943, #63 ) ;
#1149 = CYLINDRICAL_SURFACE ( 'NONE', #493, 1.024999999999994582 ) ;
#1150 = EDGE_LOOP ( 'NONE', ( #388, #1278 ) ) ;
#1151 = CARTESIAN_POINT ( 'NONE',  ( -16.00000000000000000, 2.000000000000000000, 21.70000000000000284 ) ) ;
#1152 = CARTESIAN_POINT ( 'NONE',  ( 16.00000000000000000, 5.000000000000000000, 16.75000000000000711 ) ) ;
#1153 = CARTESIAN_POINT ( 'NONE',  ( -32.50000000000000000, 8.000000000000000000, 24.00000000000000711 ) ) ;
#1154 = ORIENTED_EDGE ( 'NONE', *, *, #1321, .T. ) ;
#1155 = AXIS2_PLACEMENT_3D ( 'NONE', #1018, #550, #342 ) ;
#1156 = DIRECTION ( 'NONE',  ( 0.000000000000000000, -1.000000000000000000, 0.000000000000000000 ) ) ;
#1157 = DIRECTION ( 'NONE',  ( 0.000000000000000000, 0.000000000000000000, 1.000000000000000000 ) ) ;
#1158 = ORIENTED_EDGE ( 'NONE', *, *, #198, .T. ) ;
#1159 = AXIS2_PLACEMENT_3D ( 'NONE', #520, #924, #11 ) ;
#1160 = DIRECTION ( 'NONE',  ( 0.000000000000000000, -0.000000000000000000, -1.000000000000000000 ) ) ;
#1161 = DIRECTION ( 'NONE',  ( -0.000000000000000000, 1.000000000000000000, -0.000000000000000000 ) ) ;
#1162 = CIRCLE ( 'NONE', #591, 1.024999999999991251 ) ;
#1163 = DIRECTION ( 'NONE',  ( 0.000000000000000000, 0.000000000000000000, 1.000000000000000000 ) ) ;
#1164 = ORIENTED_EDGE ( 'NONE', *, *, #812, .F. ) ;
#1165 = EDGE_CURVE ( 'NONE', #1250, #112, #872, .T. ) ;
#1166 = LINE ( 'NONE', #741, #571 ) ;
#1167 = VECTOR ( 'NONE', #283, 1000.000000000000000 ) ;
#1168 = CARTESIAN_POINT ( 'NONE',  ( -23.50000000000000000, 1.650000000000000799, -5.999999999999991118 ) ) ;
#1169 = EDGE_CURVE ( 'NONE', #1093, #242, #541, .T. ) ;
#1170 = EDGE_CURVE ( 'NONE', #1090, #977, #565, .T. ) ;
#1171 = ORIENTED_EDGE ( 'NONE', *, *, #986, .T. ) ;
#1172 = AXIS2_PLACEMENT_3D ( 'NONE', #1044, #298, #833 ) ;
#1173 = AXIS2_PLACEMENT_3D ( 'NONE', #78, #288, #805 ) ;
#1174 = ORIENTED_EDGE ( 'NONE', *, *, #1170, .T. ) ;
#1175 = DIRECTION ( 'NONE',  ( 0.000000000000000000, 0.000000000000000000, 1.000000000000000000 ) ) ;
#1176 = DIRECTION ( 'NONE',  ( -0.000000000000000000, 1.000000000000000000, -0.000000000000000000 ) ) ;
#1177 = DIRECTION ( 'NONE',  ( -0.000000000000000000, 1.000000000000000000, -0.000000000000000000 ) ) ;
#1178 = EDGE_CURVE ( 'NONE', #809, #436, #530, .T. ) ;
#1179 = ORIENTED_EDGE ( 'NONE', *, *, #713, .F. ) ;
#1180 = ORIENTED_EDGE ( 'NONE', *, *, #195, .T. ) ;
#1181 = DIRECTION ( 'NONE',  ( -0.000000000000000000, 1.000000000000000000, -0.000000000000000000 ) ) ;
#1182 = EDGE_CURVE ( 'NONE', #73, #488, #553, .T. ) ;
#1183 = ADVANCED_FACE ( 'NONE', ( #766 ), #646, .F. ) ;
#1184 = CARTESIAN_POINT ( 'NONE',  ( -23.50000000000000000, 8.000000000000000000, -19.02499999999999147 ) ) ;
#1185 = FACE_OUTER_BOUND ( 'NONE', #1084, .T. ) ;
#1186 =( GEOMETRIC_REPRESENTATION_CONTEXT ( 3 ) GLOBAL_UNCERTAINTY_ASSIGNED_CONTEXT ( ( #546 ) ) GLOBAL_UNIT_ASSIGNED_CONTEXT ( ( #262, #882, #1074 ) ) REPRESENTATION_CONTEXT ( 'NONE', 'WORKASPACE' ) );
#1187 = ORIENTED_EDGE ( 'NONE', *, *, #517, .F. ) ;
#1188 = EDGE_CURVE ( 'NONE', #1316, #944, #153, .T. ) ;
#1189 = DIRECTION ( 'NONE',  ( 0.000000000000000000, -0.000000000000000000, -1.000000000000000000 ) ) ;
#1190 = AXIS2_PLACEMENT_3D ( 'NONE', #392, #922, #696 ) ;
#1191 = LINE ( 'NONE', #269, #968 ) ;
#1192 = ORIENTED_EDGE ( 'NONE', *, *, #1083, .T. ) ;
#1193 = EDGE_LOOP ( 'NONE', ( #1310, #1200, #525, #1171 ) ) ;
#1194 = AXIS2_PLACEMENT_3D ( 'NONE', #738, #341, #1126 ) ;
#1195 = ORIENTED_EDGE ( 'NONE', *, *, #1314, .T. ) ;
#1196 = DIRECTION ( 'NONE',  ( -0.000000000000000000, 1.000000000000000000, -0.000000000000000000 ) ) ;
#1197 = CARTESIAN_POINT ( 'NONE',  ( 16.00000000000000000, 2.000000000000000000, 20.00000000000000711 ) ) ;
#1198 = AXIS2_PLACEMENT_3D ( 'NONE', #914, #519, #1308 ) ;
#1199 = CARTESIAN_POINT ( 'NONE',  ( -23.50000000000000000, 8.000000000000000000, -17.99999999999999645 ) ) ;
#1200 = ORIENTED_EDGE ( 'NONE', *, *, #375, .T. ) ;
#1201 = AXIS2_PLACEMENT_3D ( 'NONE', #975, #67, #807 ) ;
#1202 = VECTOR ( 'NONE', #715, 1000.000000000000000 ) ;
#1203 = ORIENTED_EDGE ( 'NONE', *, *, #954, .T. ) ;
#1204 = CYLINDRICAL_SURFACE ( 'NONE', #886, 1.700000000000000178 ) ;
#1205 = DIRECTION ( 'NONE',  ( 0.000000000000000000, -0.000000000000000000, -1.000000000000000000 ) ) ;
#1206 = CARTESIAN_POINT ( 'NONE',  ( -11.50000000000000000, 5.000000000000000000, 22.75000000000000711 ) ) ;
#1207 = ORIENTED_EDGE ( 'NONE', *, *, #482, .T. ) ;
#1208 = VECTOR ( 'NONE', #452, 1000.000000000000000 ) ;
#1209 = ORIENTED_EDGE ( 'NONE', *, *, #339, .T. ) ;
#1210 = APPLICATION_CONTEXT ( 'automotive_design' ) ;
#1211 = CARTESIAN_POINT ( 'NONE',  ( 0.000000000000000000, 0.000000000000000000, 0.000000000000000000 ) ) ;
#1212 = DIRECTION ( 'NONE',  ( 0.000000000000000000, 0.000000000000000000, 1.000000000000000000 ) ) ;
#1213 = DIRECTION ( 'NONE',  ( -0.000000000000000000, 1.000000000000000000, -0.000000000000000000 ) ) ;
#1214 = DIRECTION ( 'NONE',  ( 0.000000000000000000, 0.000000000000000000, 1.000000000000000000 ) ) ;
#1215 = ORIENTED_EDGE ( 'NONE', *, *, #1085, .T. ) ;
#1216 = CARTESIAN_POINT ( 'NONE',  ( -23.50000000000000000, 1.650000000000001243, 18.00000000000001066 ) ) ;
#1217 = AXIS2_PLACEMENT_3D ( 'NONE', #333, #536, #415 ) ;
#1218 = DIRECTION ( 'NONE',  ( -0.000000000000000000, 1.000000000000000000, -0.000000000000000000 ) ) ;
#1219 = CARTESIAN_POINT ( 'NONE',  ( -11.50000000000000000, 5.000000000000000000, 22.75000000000000711 ) ) ;
#1220 = VECTOR ( 'NONE', #220, 1000.000000000000000 ) ;
#1221 = DIRECTION ( 'NONE',  ( -0.000000000000000000, 1.000000000000000000, -0.000000000000000000 ) ) ;
#1222 = EDGE_CURVE ( 'NONE', #825, #615, #1166, .T. ) ;
#1223 = ORIENTED_EDGE ( 'NONE', *, *, #570, .F. ) ;
#1224 = DIRECTION ( 'NONE',  ( -0.000000000000000000, 1.000000000000000000, -0.000000000000000000 ) ) ;
#1225 = CARTESIAN_POINT ( 'NONE',  ( -23.50000000000000000, 8.000000000000001776, -16.97500000000000497 ) ) ;
#1226 = DIRECTION ( 'NONE',  ( -0.000000000000000000, 1.000000000000000000, -0.000000000000000000 ) ) ;
#1227 = ORIENTED_EDGE ( 'NONE', *, *, #464, .F. ) ;
#1228 = ADVANCED_FACE ( 'NONE', ( #862, #1262, #1147, #652, #252 ), #949, .T. ) ;
#1229 = ADVANCED_FACE ( 'NONE', ( #640 ), #966, .F. ) ;
#1230 = CARTESIAN_POINT ( 'NONE',  ( 16.00000000000000000, 5.000000000000000000, 20.00000000000000711 ) ) ;
#1231 = ORIENTED_EDGE ( 'NONE', *, *, #853, .F. ) ;
#1232 = CIRCLE ( 'NONE', #71, 1.024999999999998135 ) ;
#1233 = ORIENTED_EDGE ( 'NONE', *, *, #894, .F. ) ;
#1234 = VECTOR ( 'NONE', #148, 1000.000000000000000 ) ;
#1236 = ADVANCED_FACE ( 'NONE', ( #1268, #447 ), #352, .F. ) ;
#1235 = DIRECTION ( 'NONE',  ( 0.000000000000000000, 0.000000000000000000, 1.000000000000000000 ) ) ;
#1237 = EDGE_CURVE ( 'NONE', #367, #459, #803, .T. ) ;
#1238 = DIRECTION ( 'NONE',  ( 0.000000000000000000, 0.000000000000000000, 1.000000000000000000 ) ) ;
#1239 = CARTESIAN_POINT ( 'NONE',  ( 16.00000000000000000, 2.000000000000000000, -23.24999999999998934 ) ) ;
#1240 = EDGE_LOOP ( 'NONE', ( #692, #57 ) ) ;
#1241 = DIRECTION ( 'NONE',  ( -0.000000000000000000, 1.000000000000000000, -0.000000000000000000 ) ) ;
#1242 = DIRECTION ( 'NONE',  ( 0.000000000000000000, 0.000000000000000000, 1.000000000000000000 ) ) ;
#1243 = DIRECTION ( 'NONE',  ( -0.000000000000000000, -1.000000000000000000, -0.000000000000000000 ) ) ;
#1244 = AXIS2_PLACEMENT_3D ( 'NONE', #1017, #294, #1212 ) ;
#1245 = ORIENTED_EDGE ( 'NONE', *, *, #613, .T. ) ;
#1246 = LINE ( 'NONE', #321, #997 ) ;
#1247 = DIRECTION ( 'NONE',  ( 0.000000000000000000, 0.000000000000000000, 1.000000000000000000 ) ) ;
#1248 = CARTESIAN_POINT ( 'NONE',  ( 16.00000000000000000, 5.000000000000000000, -19.99999999999998934 ) ) ;
#1249 = CARTESIAN_POINT ( 'NONE',  ( -11.50000000000000000, 5.000000000000000000, 24.00000000000000711 ) ) ;
#1250 = VERTEX_POINT ( 'NONE', #85 ) ;
#1251 = CARTESIAN_POINT ( 'NONE',  ( -11.50000000000000000, 0.000000000000000000, 22.75000000000000711 ) ) ;
#1252 = CARTESIAN_POINT ( 'NONE',  ( -23.50000000000000000, 8.000000000000000000, -17.99999999999999645 ) ) ;
#1253 = EDGE_CURVE ( 'NONE', #183, #817, #77, .T. ) ;
#1254 = CARTESIAN_POINT ( 'NONE',  ( -16.00000000000000000, 0.000000000000000000, 20.00000000000000355 ) ) ;
#1255 = DIRECTION ( 'NONE',  ( 0.000000000000000000, 1.000000000000000000, 0.000000000000000000 ) ) ;
#1256 = DIRECTION ( 'NONE',  ( -0.000000000000000000, 1.000000000000000000, -0.000000000000000000 ) ) ;
#1257 = VERTEX_POINT ( 'NONE', #773 ) ;
#1258 = AXIS2_PLACEMENT_3D ( 'NONE', #36, #468, #249 ) ;
#1259 = CARTESIAN_POINT ( 'NONE',  ( 16.00000000000000000, 5.000000000000000000, -21.69999999999998863 ) ) ;
#1260 = DIRECTION ( 'NONE',  ( 0.000000000000000000, 0.000000000000000000, 1.000000000000000000 ) ) ;
#1261 = ORIENTED_EDGE ( 'NONE', *, *, #694, .F. ) ;
#1262 = FACE_BOUND ( 'NONE', #1068, .T. ) ;
#1263 = FILL_AREA_STYLE_COLOUR ( '', #982 ) ;
#1264 = ORIENTED_EDGE ( 'NONE', *, *, #798, .T. ) ;
#1265 = VECTOR ( 'NONE', #1218, 1000.000000000000000 ) ;
#1266 = VECTOR ( 'NONE', #263, 1000.000000000000000 ) ;
#1267 =( GEOMETRIC_REPRESENTATION_CONTEXT ( 3 ) GLOBAL_UNCERTAINTY_ASSIGNED_CONTEXT ( ( #8 ) ) GLOBAL_UNIT_ASSIGNED_CONTEXT ( ( #548, #761, #1269 ) ) REPRESENTATION_CONTEXT ( 'NONE', 'WORKASPACE' ) );
#1268 = FACE_BOUND ( 'NONE', #1150, .T. ) ;
#1269 =( NAMED_UNIT ( * ) SI_UNIT ( $, .STERADIAN. ) SOLID_ANGLE_UNIT ( ) );
#1270 = CYLINDRICAL_SURFACE ( 'NONE', #74, 1.700000000000000178 ) ;
#1271 = ADVANCED_FACE ( 'NONE', ( #1081, #974 ), #680, .F. ) ;
#1272 = ORIENTED_EDGE ( 'NONE', *, *, #986, .F. ) ;
#1273 = VECTOR ( 'NONE', #128, 1000.000000000000000 ) ;
#1274 = EDGE_CURVE ( 'NONE', #1016, #68, #1287, .T. ) ;
#1275 = CARTESIAN_POINT ( 'NONE',  ( 32.49999999999999289, 0.000000000000000000, -23.99999999999999289 ) ) ;
#1276 = EDGE_CURVE ( 'NONE', #316, #483, #796, .T. ) ;
#1277 = AXIS2_PLACEMENT_3D ( 'NONE', #238, #141, #936 ) ;
#1278 = ORIENTED_EDGE ( 'NONE', *, *, #195, .F. ) ;
#1279 = EDGE_CURVE ( 'NONE', #723, #1114, #907, .T. ) ;
#1280 = PLANE ( 'NONE',  #1077 ) ;
#1281 = CARTESIAN_POINT ( 'NONE',  ( -16.00000000000000000, 2.000000000000000000, 18.30000000000000426 ) ) ;
#1282 = ORIENTED_EDGE ( 'NONE', *, *, #670, .F. ) ;
#1283 = CIRCLE ( 'NONE', #706, 1.700000000000000178 ) ;
#1284 = ORIENTED_EDGE ( 'NONE', *, *, #1321, .F. ) ;
#1285 = ADVANCED_FACE ( 'NONE', ( #573 ), #256, .F. ) ;
#1286 = ADVANCED_FACE ( 'NONE', ( #486 ), #1204, .F. ) ;
#1287 = LINE ( 'NONE', #1299, #466 ) ;
#1288 = CARTESIAN_POINT ( 'NONE',  ( 16.00000000000000000, 2.000000000000000000, -16.74999999999998934 ) ) ;
#1289 = CARTESIAN_POINT ( 'NONE',  ( -23.50000000000000000, 1.650000000000001243, 4.975000000000010303 ) ) ;
#1290 = ORIENTED_EDGE ( 'NONE', *, *, #844, .F. ) ;
#1291 = DIRECTION ( 'NONE',  ( -0.000000000000000000, 1.000000000000000000, -0.000000000000000000 ) ) ;
#1292 = AXIS2_PLACEMENT_3D ( 'NONE', #363, #472, #878 ) ;
#1293 = EDGE_LOOP ( 'NONE', ( #973, #777 ) ) ;
#1294 = DIRECTION ( 'NONE',  ( -1.445602896647339163E-16, 0.000000000000000000, -1.000000000000000000 ) ) ;
#1295 = VECTOR ( 'NONE', #1300, 1000.000000000000000 ) ;
#1296 = CARTESIAN_POINT ( 'NONE',  ( -32.50000000000000000, 5.000000000000000000, -23.99999999999999289 ) ) ;
#1297 = ORIENTED_EDGE ( 'NONE', *, *, #339, .F. ) ;
#1298 = ORIENTED_EDGE ( 'NONE', *, *, #1021, .F. ) ;
#1299 = CARTESIAN_POINT ( 'NONE',  ( 16.00000000000000000, 5.000000000000000000, -23.24999999999998934 ) ) ;
#1300 = DIRECTION ( 'NONE',  ( -0.000000000000000000, -1.000000000000000000, -0.000000000000000000 ) ) ;
#1301 = CARTESIAN_POINT ( 'NONE',  ( 16.00000000000000000, 2.000000000000000000, -19.99999999999998934 ) ) ;
#1302 = EDGE_LOOP ( 'NONE', ( #1209, #881, #76, #1132, #313, #551 ) ) ;
#1303 = EDGE_CURVE ( 'NONE', #1026, #906, #70, .T. ) ;
#1304 = EDGE_LOOP ( 'NONE', ( #82, #508 ) ) ;
#1305 = DIRECTION ( 'NONE',  ( 0.000000000000000000, 0.000000000000000000, 1.000000000000000000 ) ) ;
#1306 = CARTESIAN_POINT ( 'NONE',  ( -16.00000000000000000, 0.000000000000000000, -19.99999999999998934 ) ) ;
#1307 = ADVANCED_FACE ( 'NONE', ( #275 ), #282, .F. ) ;
#1308 = DIRECTION ( 'NONE',  ( 0.000000000000000000, 0.000000000000000000, 1.000000000000000000 ) ) ;
#1309 = DIRECTION ( 'NONE',  ( -0.000000000000000000, 1.000000000000000000, -0.000000000000000000 ) ) ;
#1310 = ORIENTED_EDGE ( 'NONE', *, *, #446, .T. ) ;
#1311 = VECTOR ( 'NONE', #866, 1000.000000000000000 ) ;
#1312 = ORIENTED_EDGE ( 'NONE', *, *, #991, .F. ) ;
#1313 = CARTESIAN_POINT ( 'NONE',  ( 11.49999999999999645, 5.000000000000000000, 24.00000000000000711 ) ) ;
#1314 = EDGE_CURVE ( 'NONE', #1016, #989, #307, .T. ) ;
#1315 = DIRECTION ( 'NONE',  ( -0.000000000000000000, 1.000000000000000000, -0.000000000000000000 ) ) ;
#1316 = VERTEX_POINT ( 'NONE', #901 ) ;
#1317 = FACE_OUTER_BOUND ( 'NONE', #533, .T. ) ;
#1318 = ORIENTED_EDGE ( 'NONE', *, *, #900, .T. ) ;
#1319 = EDGE_CURVE ( 'NONE', #183, #1100, #336, .T. ) ;
#1320 = DIRECTION ( 'NONE',  ( 0.000000000000000000, 0.000000000000000000, 1.000000000000000000 ) ) ;
#1321 = EDGE_CURVE ( 'NONE', #989, #1016, #97, .T. ) ;
ENDSEC;
END-ISO-10303-21;
